<svg width="65" height="64" viewBox="0 0 65 64" fill="none" xmlns="http://www.w3.org/2000/svg">
<path d="M0.666626 25.6C0.666626 16.6392 0.666626 12.1587 2.41052 8.73615C3.9445 5.72556 6.39218 3.27787 9.40278 1.7439C12.8254 0 17.3058 0 26.2666 0H39.0666C48.0275 0 52.5079 0 55.9305 1.7439C58.9411 3.27787 61.3888 5.72556 62.9227 8.73615C64.6666 12.1587 64.6666 16.6392 64.6666 25.6V38.4C64.6666 47.3608 64.6666 51.8413 62.9227 55.2638C61.3888 58.2744 58.9411 60.7221 55.9305 62.2561C52.5079 64 48.0275 64 39.0666 64H26.2666C17.3058 64 12.8254 64 9.40278 62.2561C6.39218 60.7221 3.9445 58.2744 2.41052 55.2638C0.666626 51.8413 0.666626 47.3608 0.666626 38.4V25.6Z" fill="url(#paint0_linear_1_2893)"/>
<g filter="url(#filter0_d_1_2893)">
<path d="M39.1123 37.0954L38.2014 38.0544C38.2014 38.0544 36.0363 40.3339 30.1262 34.1118C24.2162 27.8897 26.3814 25.6101 26.3814 25.6101L26.955 25.0062C28.3681 23.5185 28.5014 21.1299 27.2685 19.3862L24.7465 15.8192C23.2206 13.661 20.2719 13.3759 18.5229 15.2173L15.3837 18.5223C14.5165 19.4353 13.9353 20.6189 14.0058 21.9319C14.1861 25.2909 15.6214 32.5181 23.6307 40.9504C32.1243 49.8925 40.0937 50.2478 43.3526 49.9262C44.3834 49.8244 45.2799 49.2686 46.0022 48.508L48.8433 45.5169C50.7611 43.4978 50.2204 40.0363 47.7667 38.624L43.9456 36.4246C42.3345 35.4973 40.3715 35.7697 39.1123 37.0954Z" fill="url(#paint1_linear_1_2893)"/>
<path d="M34.519 11.7597C34.6514 10.9419 35.4244 10.3871 36.2422 10.5195C36.2928 10.5292 36.4557 10.5597 36.5411 10.5787C36.7117 10.6167 36.9498 10.6752 37.2466 10.7616C37.8401 10.9345 38.6693 11.2193 39.6646 11.6756C41.6571 12.5891 44.3088 14.1871 47.0604 16.9387C49.812 19.6903 51.41 22.3419 52.3235 24.3345C52.7798 25.3297 53.0646 26.1589 53.2374 26.7525C53.3239 27.0493 53.3824 27.2874 53.4204 27.458C53.4394 27.5434 53.4533 27.6119 53.463 27.6625L53.4745 27.7249C53.6069 28.5427 53.0572 29.3477 52.2394 29.4801C51.424 29.6121 50.6558 29.0601 50.5201 28.2461C50.5159 28.2243 50.5045 28.1655 50.4922 28.1102C50.4675 27.9994 50.4248 27.8238 50.3571 27.5914C50.2218 27.1268 49.9867 26.4361 49.5964 25.5848C48.8167 23.8841 47.4148 21.5358 44.939 19.06C42.4633 16.5843 40.1149 15.1823 38.4143 14.4027C37.563 14.0124 36.8723 13.7773 36.4076 13.6419C36.1753 13.5743 35.8833 13.5073 35.7726 13.4826C34.9586 13.3469 34.387 12.5751 34.519 11.7597Z" fill="url(#paint2_linear_1_2893)"/>
<path fill-rule="evenodd" clip-rule="evenodd" d="M34.9715 18.6586C35.1991 17.862 36.0293 17.4008 36.8258 17.6284L36.4138 19.0707C36.8258 17.6284 36.8258 17.6284 36.8258 17.6284L36.8287 17.6292L36.8318 17.6301L36.8385 17.632L36.854 17.6367L36.8935 17.649C36.9237 17.6586 36.9613 17.6712 37.0062 17.6871C37.0961 17.719 37.2148 17.7643 37.3604 17.8267C37.6518 17.9516 38.0499 18.1445 38.5389 18.4339C39.5178 19.0132 40.8542 19.9756 42.4242 21.5455C43.9941 23.1155 44.9565 24.4519 45.5358 25.4308C45.8253 25.9198 46.0181 26.3179 46.143 26.6093C46.2054 26.7549 46.2507 26.8736 46.2826 26.9635C46.2985 27.0084 46.3111 27.046 46.3207 27.0762L46.333 27.1158L46.3377 27.1313L46.3396 27.1379L46.3405 27.141C46.3405 27.141 46.3413 27.1439 44.899 27.556L46.3413 27.1439C46.5689 27.9404 46.1077 28.7707 45.3111 28.9982C44.5213 29.2239 43.6984 28.7724 43.4627 27.9883L43.4553 27.9667C43.4446 27.9366 43.4226 27.8775 43.3855 27.7911C43.3115 27.6184 43.1773 27.3359 42.9541 26.9588C42.5082 26.2053 41.7028 25.0668 40.3028 23.6669C38.9029 22.267 37.7644 21.4616 37.011 21.0156C36.6338 20.7924 36.3513 20.6582 36.1786 20.5842C36.0922 20.5472 36.0331 20.5251 36.003 20.5144L35.9815 20.507C35.1973 20.2713 34.7458 19.4484 34.9715 18.6586Z" fill="url(#paint3_linear_1_2893)"/>
</g>
<defs>
<filter id="filter0_d_1_2893" x="7.5" y="7.75" width="49" height="49" filterUnits="userSpaceOnUse" color-interpolation-filters="sRGB">
<feFlood flood-opacity="0" result="BackgroundImageFix"/>
<feColorMatrix in="SourceAlpha" type="matrix" values="0 0 0 0 0 0 0 0 0 0 0 0 0 0 0 0 0 0 127 0" result="hardAlpha"/>
<feOffset dy="0.25"/>
<feGaussianBlur stdDeviation="0.25"/>
<feComposite in2="hardAlpha" operator="out"/>
<feColorMatrix type="matrix" values="0 0 0 0 0 0 0 0 0 0 0 0 0 0 0 0 0 0 0.2 0"/>
<feBlend mode="normal" in2="BackgroundImageFix" result="effect1_dropShadow_1_2893"/>
<feBlend mode="normal" in="SourceGraphic" in2="effect1_dropShadow_1_2893" result="shape"/>
</filter>
<linearGradient id="paint0_linear_1_2893" x1="32.6666" y1="0" x2="32.6666" y2="64" gradientUnits="userSpaceOnUse">
<stop stop-color="#8A6EEC"/>
<stop offset="1" stop-color="#5F42C3"/>
</linearGradient>
<linearGradient id="paint1_linear_1_2893" x1="32" y1="14" x2="32" y2="50" gradientUnits="userSpaceOnUse">
<stop stop-color="white"/>
<stop offset="1" stop-color="white" stop-opacity="0.7"/>
</linearGradient>
<linearGradient id="paint2_linear_1_2893" x1="43.9971" y1="10.5" x2="43.9971" y2="29.4996" gradientUnits="userSpaceOnUse">
<stop stop-color="white"/>
<stop offset="1" stop-color="white" stop-opacity="0.7"/>
</linearGradient>
<linearGradient id="paint3_linear_1_2893" x1="43.9971" y1="10.5" x2="43.9971" y2="29.4996" gradientUnits="userSpaceOnUse">
<stop stop-color="white"/>
<stop offset="1" stop-color="white" stop-opacity="0.7"/>
</linearGradient>
</defs>
</svg>
