<svg width="80" height="64" viewBox="0 0 80 64" fill="none" xmlns="http://www.w3.org/2000/svg">
<g clip-path="url(#clip0_33_36437)">
<mask id="mask0_33_36437" style="mask-type:luminance" maskUnits="userSpaceOnUse" x="0" y="0" width="80" height="64">
<path d="M80 0H0V64H80V0Z" fill="white"/>
</mask>
<g mask="url(#mask0_33_36437)">
<path d="M77.0873 51.7822C77.0873 52.0692 77.1686 52.2742 77.3312 52.4382C77.4937 52.5885 77.7376 52.6568 78.0492 52.6568H79.0382V50.8939H78.0898C77.7782 50.8939 77.5208 50.9759 77.3583 51.1262C77.1686 51.2765 77.0873 51.4952 77.0873 51.7822ZM79.3904 50.5795V54.0098H79.0382V52.9712H78.0221C77.9815 52.9712 77.9137 52.9712 77.8324 52.9575L77.1144 54.0098H76.7351L77.5073 52.9028C77.2634 52.8345 77.0738 52.6978 76.9383 52.5065C76.8028 52.3152 76.7351 52.0829 76.7351 51.7959C76.7351 51.4132 76.857 51.1125 77.0873 50.9075C77.3312 50.6889 77.6563 50.5932 78.0627 50.5932H79.3904V50.5795ZM72.0204 50.5795H72.3727V53.4222L74.5403 50.5795H74.8655V54.0098H74.5132V51.1809L72.3456 54.0098H72.0204V50.5795ZM70.4218 50.8939H69.2296V54.0098H68.8773V50.8939H67.6851V50.5795H70.4218V50.8939ZM63.2279 50.5795H63.5801V53.4222L65.7478 50.5795H66.0729V54.0098H65.7207V51.1809L63.553 54.0098H63.2279V50.5795ZM60.1254 53.7228C60.708 53.7228 61.006 53.5042 61.006 53.0668C61.006 52.6432 60.708 52.4245 60.1254 52.4245H58.9738V53.7365H60.1254V53.7228ZM58.9874 52.1375H60.0306C60.288 52.1375 60.4912 52.0829 60.6267 51.9735C60.7622 51.8642 60.8434 51.7139 60.8434 51.5089C60.8434 51.3039 60.7757 51.1535 60.6267 51.0442C60.4912 50.9349 60.288 50.8802 60.0306 50.8802H58.9874V52.1375ZM60.6402 52.2469C60.8705 52.3015 61.0602 52.3972 61.1821 52.5338C61.3041 52.6705 61.3718 52.8618 61.3718 53.0805C61.3718 53.3812 61.2634 53.5998 61.0602 53.7638C60.857 53.9278 60.5454 54.0098 60.139 54.0098H58.6351V50.5795H60.0441C60.4099 50.5795 60.6944 50.6479 60.8976 50.7982C61.1009 50.9485 61.2092 51.1672 61.2092 51.4542C61.2092 51.6455 61.155 51.8095 61.0602 51.9462C60.9518 52.0829 60.8163 52.1785 60.6402 52.2469ZM56.0475 52.2195C56.2643 52.2742 56.4404 52.3699 56.5759 52.5202C56.7113 52.6705 56.7655 52.8482 56.7655 53.0532C56.7655 53.2582 56.6978 53.4222 56.5759 53.5725C56.4539 53.7228 56.2914 53.8322 56.0882 53.9142C55.8849 53.9962 55.6682 54.0372 55.4243 54.0372C55.194 54.0372 54.9772 53.9962 54.7605 53.9278C54.5437 53.8595 54.354 53.7365 54.1779 53.5998L54.3134 53.3402C54.4624 53.4632 54.6385 53.5588 54.8282 53.6272C55.0179 53.6955 55.2075 53.7228 55.4108 53.7228C55.6004 53.7228 55.763 53.6955 55.9256 53.6408C56.0746 53.5862 56.2101 53.5042 56.2914 53.3948C56.3862 53.2855 56.4268 53.1488 56.4268 52.9985C56.4268 52.7935 56.3456 52.6432 56.1965 52.5338C56.0475 52.4245 55.8172 52.3699 55.5462 52.3699H54.8147V52.0829H55.5191C55.763 52.0829 55.9391 52.0282 56.0746 51.9325C56.2101 51.8232 56.2778 51.6865 56.2778 51.5089C56.2778 51.3039 56.1965 51.1535 56.0204 51.0305C55.8443 50.9075 55.6275 50.8529 55.3701 50.8529C55.2075 50.8529 55.045 50.8802 54.8824 50.9212C54.7198 50.9622 54.5572 51.0305 54.4082 51.1262L54.2863 50.8255C54.625 50.6205 54.9908 50.5249 55.3837 50.5249C55.614 50.5249 55.8172 50.5659 56.0204 50.6342C56.2236 50.7025 56.3591 50.8119 56.4675 50.9622C56.5759 51.0989 56.6436 51.2629 56.6436 51.4542C56.6436 51.6319 56.5894 51.7959 56.4946 51.9325C56.3727 52.0692 56.2236 52.1649 56.0475 52.2195ZM52.0373 52.7935L51.2245 50.9485L50.4116 52.7935H52.0373ZM52.1728 53.0942H50.2761L49.8697 54.0098H49.4903L51.0484 50.5795H51.4006L52.9586 54.0098H52.5793L52.1728 53.0942ZM47.0653 52.6022C47.404 52.6022 47.6614 52.5339 47.8375 52.3835C48.0136 52.2332 48.1085 52.0282 48.1085 51.7549C48.1085 51.4815 48.0136 51.2629 47.8375 51.1125C47.6614 50.9622 47.404 50.8939 47.0653 50.8939H46.1576V52.6022H47.0653ZM47.0788 50.5795C47.5124 50.5795 47.8511 50.6889 48.0949 50.8939C48.3388 51.0989 48.4607 51.3859 48.4607 51.7549C48.4607 52.1239 48.3388 52.4109 48.0949 52.6158C47.8511 52.8208 47.5124 52.9302 47.0788 52.9302H46.1711V54.0098H45.8189V50.5795H47.0788ZM39.9527 53.7092C40.2236 53.7092 40.4675 53.6545 40.6843 53.5315C40.901 53.4085 41.0771 53.2445 41.1991 53.0258C41.321 52.8072 41.3887 52.5612 41.3887 52.3015C41.3887 52.0282 41.321 51.7959 41.1991 51.5772C41.0771 51.3585 40.901 51.1945 40.6843 51.0715C40.4675 50.9485 40.2236 50.8802 39.9527 50.8802C39.6817 50.8802 39.4379 50.9485 39.2211 51.0715C39.0043 51.1945 38.8282 51.3585 38.7063 51.5772C38.5843 51.7959 38.5166 52.0282 38.5166 52.3015C38.5166 52.5748 38.5843 52.8072 38.7063 53.0258C38.8282 53.2445 39.0043 53.4085 39.2211 53.5315C39.4514 53.6545 39.6953 53.7092 39.9527 53.7092ZM39.9527 54.0372C39.614 54.0372 39.3159 53.9688 39.0314 53.8185C38.7605 53.6682 38.5437 53.4632 38.3947 53.1898C38.2456 52.9302 38.1644 52.6295 38.1644 52.3015C38.1644 51.9735 38.2456 51.6729 38.3947 51.4132C38.5437 51.1535 38.7605 50.9485 39.0314 50.7982C39.3024 50.6479 39.614 50.5659 39.9527 50.5659C40.2914 50.5659 40.5894 50.6342 40.8604 50.7845C41.1313 50.9349 41.3481 51.1399 41.4971 51.4132C41.6462 51.6729 41.7274 51.9735 41.7274 52.3015C41.7274 52.6295 41.6462 52.9302 41.4971 53.1898C41.3481 53.4495 41.1313 53.6545 40.8604 53.8048C40.5894 53.9552 40.2914 54.0372 39.9527 54.0372ZM37.3379 50.8939H35.5361V54.0098H35.1838V50.5795H37.3379V50.8939ZM31.5801 53.7092C31.8511 53.7092 32.0949 53.6545 32.3117 53.5315C32.5285 53.4085 32.7046 53.2445 32.8265 53.0258C32.9484 52.8072 33.0162 52.5612 33.0162 52.3015C33.0162 52.0282 32.9484 51.7959 32.8265 51.5772C32.7046 51.3585 32.5285 51.1945 32.3117 51.0715C32.0949 50.9485 31.8511 50.8802 31.5801 50.8802C31.3091 50.8802 31.0653 50.9485 30.8485 51.0715C30.6318 51.1945 30.4556 51.3585 30.3337 51.5772C30.2118 51.7959 30.144 52.0282 30.144 52.3015C30.144 52.5748 30.2118 52.8072 30.3337 53.0258C30.4556 53.2445 30.6318 53.4085 30.8485 53.5315C31.0653 53.6545 31.3091 53.7092 31.5801 53.7092ZM31.5801 54.0372C31.2414 54.0372 30.9434 53.9688 30.6589 53.8185C30.3879 53.6682 30.1711 53.4632 30.0221 53.1898C29.8731 52.9302 29.7918 52.6295 29.7918 52.3015C29.7918 51.9735 29.8731 51.6729 30.0221 51.4132C30.1711 51.1535 30.3879 50.9485 30.6589 50.7982C30.9298 50.6479 31.2414 50.5659 31.5801 50.5659C31.9188 50.5659 32.2169 50.6342 32.4878 50.7845C32.7588 50.9349 32.9755 51.1399 33.1246 51.4132C33.2736 51.6729 33.3549 51.9735 33.3549 52.3015C33.3549 52.6295 33.2736 52.9302 33.1246 53.1898C32.9755 53.4495 32.7588 53.6545 32.4878 53.8048C32.2169 53.9552 31.9188 54.0372 31.5801 54.0372ZM26.9874 53.7228C27.5699 53.7228 27.868 53.5042 27.868 53.0668C27.868 52.6432 27.5699 52.4245 26.9874 52.4245H25.8358V53.7365H26.9874V53.7228ZM25.8358 52.1375H26.879C27.1364 52.1375 27.3396 52.0829 27.4751 51.9735C27.6106 51.8642 27.6919 51.7139 27.6919 51.5089C27.6919 51.3039 27.6241 51.1535 27.4751 51.0442C27.3396 50.9349 27.1364 50.8802 26.879 50.8802H25.8358V52.1375ZM27.5022 52.2469C27.7325 52.3015 27.9222 52.3972 28.0441 52.5338C28.1661 52.6705 28.2338 52.8618 28.2338 53.0805C28.2338 53.3812 28.1254 53.5998 27.9222 53.7638C27.719 53.9278 27.4074 54.0098 27.0009 54.0098H25.4971V50.5795H26.9061C27.2719 50.5795 27.5564 50.6479 27.7596 50.7982C27.9628 50.9485 28.0712 51.1672 28.0712 51.4542C28.0712 51.6455 28.017 51.8095 27.9222 51.9462C27.8138 52.0829 27.6783 52.1785 27.5022 52.2469ZM21.8799 53.7092C22.1508 53.7092 22.3947 53.6545 22.6114 53.5315C22.8282 53.4085 23.0043 53.2445 23.1263 53.0258C23.2482 52.8072 23.3159 52.5612 23.3159 52.3015C23.3159 52.0282 23.2482 51.7959 23.1263 51.5772C23.0043 51.3585 22.8282 51.1945 22.6114 51.0715C22.3947 50.9485 22.1508 50.8802 21.8799 50.8802C21.6089 50.8802 21.365 50.9485 21.1483 51.0715C20.9315 51.1945 20.7554 51.3585 20.6334 51.5772C20.5115 51.7959 20.4438 52.0282 20.4438 52.3015C20.4438 52.5748 20.5115 52.8072 20.6334 53.0258C20.7554 53.2445 20.9315 53.4085 21.1483 53.5315C21.365 53.6545 21.6089 53.7092 21.8799 53.7092ZM21.8799 54.0372C21.5412 54.0372 21.2431 53.9688 20.9586 53.8185C20.6876 53.6682 20.4709 53.4632 20.3218 53.1898C20.1728 52.9302 20.0915 52.6295 20.0915 52.3015C20.0915 51.9735 20.1728 51.6729 20.3218 51.4132C20.4709 51.1535 20.6876 50.9485 20.9586 50.7982C21.2296 50.6479 21.5412 50.5659 21.8799 50.5659C22.2185 50.5659 22.5166 50.6342 22.7876 50.7845C23.0585 50.9349 23.2753 51.1399 23.4243 51.4132C23.5733 51.6729 23.6546 51.9735 23.6546 52.3015C23.6546 52.6295 23.5733 52.9302 23.4243 53.1898C23.2753 53.4495 23.0585 53.6545 22.7876 53.8048C22.5166 53.9552 22.2185 54.0372 21.8799 54.0372ZM17.2465 52.6022C17.5852 52.6022 17.8426 52.5339 18.0187 52.3835C18.1948 52.2332 18.2897 52.0282 18.2897 51.7549C18.2897 51.4815 18.1948 51.2629 18.0187 51.1125C17.8426 50.9622 17.5852 50.8939 17.2465 50.8939H16.3388V52.6022H17.2465ZM17.2465 50.5795C17.68 50.5795 18.0187 50.6889 18.2626 50.8939C18.5064 51.0989 18.6284 51.3859 18.6284 51.7549C18.6284 52.1239 18.5064 52.4109 18.2626 52.6158C18.0187 52.8208 17.68 52.9302 17.2465 52.9302H16.3388V54.0098H15.9865V50.5795H17.2465ZM10.581 52.2879C10.581 52.6568 10.7029 52.9438 10.9603 53.1488C11.2177 53.3538 11.5835 53.4632 12.0441 53.4905V51.1125C11.5699 51.1262 11.2042 51.2492 10.9467 51.4542C10.7029 51.6455 10.581 51.9189 10.581 52.2879ZM12.3828 53.4768C12.857 53.4632 13.2092 53.3402 13.4666 53.1352C13.7241 52.9302 13.846 52.6432 13.846 52.2742C13.846 51.9052 13.7105 51.6182 13.4531 51.4132C13.1957 51.2082 12.8434 51.0989 12.3693 51.0852V53.4768H12.3828ZM14.1982 52.2879C14.1982 52.7388 14.0357 53.0942 13.7241 53.3538C13.4125 53.6135 12.9654 53.7502 12.3964 53.7638V54.1192H12.0441V53.7638C11.4751 53.7502 11.028 53.5998 10.7029 53.3538C10.3913 53.0942 10.2287 52.7388 10.2287 52.2879C10.2287 51.8369 10.3913 51.4815 10.7029 51.2219C11.028 50.9622 11.4751 50.8255 12.0441 50.8119V50.4702H12.3828V50.8119C12.9518 50.8255 13.3989 50.9759 13.7105 51.2355C14.0357 51.4815 14.1982 51.8369 14.1982 52.2879ZM5.59535 50.5795H5.94759V53.4222L8.12879 50.5795H8.45394V54.0098H8.1017V51.1809L5.93404 54.0098H5.59535V50.5795ZM3.91542 53.6955V54.8161H3.57672V54.0098H0.623291V50.5795H0.975535V53.6955H3.02126V50.5795H3.3735V53.6955H3.91542Z" fill="#6C7171"/>
</g>
<mask id="mask1_33_36437" style="mask-type:luminance" maskUnits="userSpaceOnUse" x="0" y="0" width="80" height="64">
<path d="M80 0H0V64H80V0Z" fill="white"/>
</mask>
<g mask="url(#mask1_33_36437)">
<path d="M72.3455 58.8477H72.6977V61.6903L74.8654 58.8477H75.1905V62.278H74.8383V59.449L72.6706 62.278H72.3455V58.8477ZM70.7468 59.162H69.5546V62.278H69.2024V59.162H68.0102V58.8477H70.7468V59.162ZM65.6122 62.3053C65.2735 62.3053 64.9755 62.237 64.7045 62.0866C64.4335 61.9363 64.2303 61.7313 64.0678 61.4716C63.9187 61.1983 63.8374 60.9113 63.8374 60.5833C63.8374 60.2553 63.9187 59.9547 64.0678 59.695C64.2168 59.4217 64.4335 59.2167 64.7045 59.0663C64.9755 58.916 65.2735 58.8477 65.6122 58.8477C65.8696 58.8477 66.0999 58.8887 66.3167 58.9707C66.5335 59.0527 66.7096 59.1757 66.8586 59.3397L66.6283 59.572C66.3573 59.2987 66.0322 59.162 65.6258 59.162C65.3548 59.162 65.1109 59.2303 64.8942 59.3533C64.6774 59.4763 64.5013 59.6403 64.3794 59.859C64.2574 60.0777 64.1897 60.31 64.1897 60.5833C64.1897 60.8566 64.2574 61.089 64.3794 61.3076C64.5013 61.5263 64.6774 61.6903 64.8942 61.8133C65.1109 61.9363 65.3548 62.0046 65.6258 62.0046C66.0322 62.0046 66.3709 61.868 66.6283 61.5946L66.8586 61.827C66.7096 61.991 66.5335 62.114 66.3167 62.2096C66.0999 62.2506 65.8696 62.3053 65.6122 62.3053ZM61.6427 61.0616L60.8298 59.2167L60.0169 61.0616H61.6427ZM61.7646 61.3623H59.8679L59.4615 62.278H59.0821L60.6401 58.8477H60.9924L62.5504 62.278H62.1711L61.7646 61.3623ZM57.4835 58.8477V62.278H57.1313V59.162H55.492L55.4513 60.31C55.4378 60.7883 55.3971 61.171 55.3294 61.458C55.2752 61.745 55.1804 61.9636 55.0584 62.1003C54.9365 62.237 54.7739 62.3053 54.5707 62.3053C54.4894 62.3053 54.3946 62.2916 54.2998 62.2643L54.3269 61.9363C54.381 61.95 54.4352 61.95 54.4894 61.95C54.6249 61.95 54.7468 61.8953 54.8281 61.7723C54.923 61.663 54.9907 61.4853 55.0313 61.2393C55.072 60.9933 55.1126 60.679 55.1262 60.2827L55.1804 58.8203H57.4835V58.8477ZM51.7934 61.9773C52.105 61.9773 52.3489 61.9226 52.4979 61.7996C52.6605 61.6766 52.7418 61.499 52.7418 61.2666C52.7418 61.0343 52.6605 60.8566 52.4979 60.7473C52.3489 60.6243 52.105 60.5697 51.7799 60.5697H50.7502V61.991H51.7934V61.9773ZM50.4115 58.8477H52.8908V59.162H50.7638V60.2827H51.8747C52.2811 60.2827 52.5792 60.3647 52.7824 60.5287C52.9992 60.6926 53.094 60.9386 53.094 61.253C53.094 61.581 52.9856 61.8406 52.7553 62.0046C52.5385 62.1823 52.2134 62.2643 51.7934 62.2643H50.4115V58.8477ZM46.8078 61.9773C47.0788 61.9773 47.3226 61.9226 47.5394 61.7996C47.7562 61.6766 47.9323 61.5126 48.0542 61.294C48.1761 61.0753 48.2439 60.8293 48.2439 60.5697C48.2439 60.31 48.1761 60.064 48.0542 59.8453C47.9323 59.6267 47.7562 59.4627 47.5394 59.3397C47.3226 59.2167 47.0788 59.1483 46.8078 59.1483C46.5369 59.1483 46.293 59.2167 46.0762 59.3397C45.8595 59.4627 45.6833 59.6267 45.5614 59.8453C45.4395 60.064 45.3717 60.2963 45.3717 60.5697C45.3717 60.843 45.4395 61.0753 45.5614 61.294C45.6833 61.5126 45.8595 61.6766 46.0762 61.7996C46.293 61.9226 46.5504 61.9773 46.8078 61.9773ZM46.8078 62.3053C46.4691 62.3053 46.1711 62.237 45.8866 62.0866C45.6156 61.9363 45.3988 61.7313 45.2498 61.458C45.1008 61.1983 45.0195 60.8976 45.0195 60.5697C45.0195 60.2417 45.1008 59.941 45.2498 59.6813C45.3988 59.4217 45.6156 59.2167 45.8866 59.0663C46.1575 58.916 46.4691 58.834 46.8078 58.834C47.1465 58.834 47.4446 58.9023 47.7155 59.0527C47.9865 59.203 48.2032 59.408 48.3523 59.6813C48.5013 59.941 48.5826 60.2417 48.5826 60.5697C48.5826 60.8976 48.5013 61.1983 48.3523 61.458C48.2032 61.7176 47.9865 61.9226 47.7155 62.073C47.4446 62.2233 47.1465 62.3053 46.8078 62.3053ZM39.5326 58.6017C39.2888 58.6017 39.0991 58.547 38.9501 58.4377C38.8146 58.3284 38.7333 58.178 38.7333 57.973H39.0043C39.0043 58.1097 39.0584 58.2054 39.1533 58.2874C39.2481 58.3694 39.37 58.3967 39.5326 58.3967C39.6816 58.3967 39.8171 58.3557 39.912 58.2874C40.0068 58.219 40.061 58.1097 40.061 57.973H40.3319C40.3319 58.178 40.2507 58.3284 40.1152 58.4377C39.9662 58.547 39.7765 58.6017 39.5326 58.6017ZM38.1236 58.8477H38.4759V61.6903L40.6435 58.8477H40.9687V62.278H40.6164V59.449L38.4488 62.278H38.1236V58.8477ZM34.5064 61.9773C34.7773 61.9773 35.0212 61.9226 35.238 61.7996C35.4547 61.6766 35.6308 61.5126 35.7528 61.294C35.8747 61.0753 35.9424 60.8293 35.9424 60.5697C35.9424 60.31 35.8747 60.064 35.7528 59.8453C35.6308 59.6267 35.4547 59.4627 35.238 59.3397C35.0212 59.2167 34.7773 59.1483 34.5064 59.1483C34.2354 59.1483 33.9916 59.2167 33.7748 59.3397C33.558 59.4627 33.3819 59.6267 33.26 59.8453C33.138 60.064 33.0703 60.2963 33.0703 60.5697C33.0703 60.843 33.138 61.0753 33.26 61.294C33.3819 61.5126 33.558 61.6766 33.7748 61.7996C34.0051 61.9226 34.249 61.9773 34.5064 61.9773ZM34.5064 62.3053C34.1677 62.3053 33.8696 62.237 33.5851 62.0866C33.3142 61.9363 33.0974 61.7313 32.9484 61.458C32.7993 61.1983 32.7181 60.8976 32.7181 60.5697C32.7181 60.2417 32.7993 59.941 32.9484 59.6813C33.0974 59.4217 33.3142 59.2167 33.5851 59.0663C33.8561 58.916 34.1677 58.834 34.5064 58.834C34.8451 58.834 35.1431 58.9023 35.4141 59.0527C35.685 59.203 35.9018 59.408 36.0508 59.6813C36.1999 59.941 36.2811 60.2417 36.2811 60.5697C36.2811 60.8976 36.1999 61.1983 36.0508 61.458C35.9018 61.7176 35.685 61.9226 35.4141 62.073C35.1567 62.2233 34.8451 62.3053 34.5064 62.3053ZM29.9001 60.7063H29.1279V62.278H28.7756V58.8477H29.1279V60.3783H29.9001L31.0517 58.8477H31.4446L30.1846 60.515L31.5123 62.278H31.1059L29.9001 60.7063ZM27.0957 61.9636V63.0843H26.757V62.278H23.79V58.8477H24.1423V61.9636H26.188V58.8477H26.5402V61.9636H27.0957ZM22.0288 61.9636V62.278H19.6308V58.8477H21.9611V59.162H19.9966V60.3783H21.7579V60.6926H19.9966V61.9636H22.0288ZM17.5174 58.8477V62.278H17.1651V59.162H15.011V62.278H14.6588V58.8477H17.5174ZM9.68673 58.8477H10.039V61.6903L12.2066 58.8477H12.5318V62.278H12.1795V59.449L10.0119 62.278H9.68673V58.8477ZM7.57327 58.8477V62.278H7.22102V59.162H5.58174L5.54109 60.31C5.52754 60.7883 5.4869 61.171 5.41916 61.458C5.36497 61.745 5.27014 61.9636 5.14821 62.1003C5.02627 62.237 4.8637 62.3053 4.66048 62.3053C4.5792 62.3053 4.48436 62.2916 4.38953 62.2643L4.41662 61.9363C4.47081 61.95 4.525 61.95 4.5792 61.95C4.71467 61.95 4.83661 61.8953 4.91789 61.7723C5.01273 61.6766 5.08047 61.499 5.13466 61.2666C5.1753 61.0206 5.21594 60.7063 5.22949 60.31L5.28368 58.8477H7.57327Z" fill="#6C7171"/>
</g>
<mask id="mask2_33_36437" style="mask-type:luminance" maskUnits="userSpaceOnUse" x="0" y="0" width="80" height="64">
<path d="M80 0H0V64H80V0Z" fill="white"/>
</mask>
<g mask="url(#mask2_33_36437)">
<path fill-rule="evenodd" clip-rule="evenodd" d="M3.37339 21.2103L5.13461 17.4247H4.28109L3.03469 20.2263L1.54443 17.4247H0.663818L2.6418 20.9643L2.54697 21.142C2.3573 21.5383 2.08634 21.6886 1.67991 21.6886C1.49024 21.6886 1.28702 21.6476 1.12444 21.593V22.3036C1.35476 22.3719 1.58507 22.4129 1.81538 22.4129C2.39794 22.4129 2.9534 22.1396 3.37339 21.2103Z" fill="#6C7171"/>
</g>
<mask id="mask3_33_36437" style="mask-type:luminance" maskUnits="userSpaceOnUse" x="0" y="0" width="80" height="64">
<path d="M80 0H0V64H80V0Z" fill="white"/>
</mask>
<g mask="url(#mask3_33_36437)">
<path d="M3.34628 3.62158H2.28955V15.0331H3.34628V3.62158Z" fill="#6C7171"/>
</g>
<mask id="mask4_33_36437" style="mask-type:luminance" maskUnits="userSpaceOnUse" x="0" y="0" width="80" height="64">
<path d="M80 0H0V64H80V0Z" fill="white"/>
</mask>
<g mask="url(#mask4_33_36437)">
<path d="M3.34628 24.8319H2.28955V36.2434H3.34628V24.8319Z" fill="#6C7171"/>
</g>
<mask id="mask5_33_36437" style="mask-type:luminance" maskUnits="userSpaceOnUse" x="0" y="0" width="80" height="64">
<path d="M80 0H0V64H80V0Z" fill="white"/>
</mask>
<g mask="url(#mask5_33_36437)">
<path fill-rule="evenodd" clip-rule="evenodd" d="M9.8086 28.0299V23.8616H12.3014V28.0299H13.1007V23.1236H9.02283V28.0299H9.8086Z" fill="#6C7171"/>
</g>
<mask id="mask6_33_36437" style="mask-type:luminance" maskUnits="userSpaceOnUse" x="0" y="0" width="80" height="64">
<path d="M80 0H0V64H80V0Z" fill="white"/>
</mask>
<g mask="url(#mask6_33_36437)">
<path d="M11.4614 9.32056H10.4047V20.732H11.4614V9.32056Z" fill="#6C7171"/>
</g>
<mask id="mask7_33_36437" style="mask-type:luminance" maskUnits="userSpaceOnUse" x="0" y="0" width="80" height="64">
<path d="M80 0H0V64H80V0Z" fill="white"/>
</mask>
<g mask="url(#mask7_33_36437)">
<path d="M11.4614 30.5308H10.4047V41.9423H11.4614V30.5308Z" fill="#6C7171"/>
</g>
<mask id="mask8_33_36437" style="mask-type:luminance" maskUnits="userSpaceOnUse" x="0" y="0" width="80" height="64">
<path d="M80 0H0V64H80V0Z" fill="white"/>
</mask>
<g mask="url(#mask8_33_36437)">
<path fill-rule="evenodd" clip-rule="evenodd" d="M17.9509 19.0237V23.9299H18.7367V22.249H19.6851C20.8366 22.249 21.7579 21.88 21.7579 20.6363C21.7579 19.3927 20.8366 19.0237 19.6851 19.0237H17.9509ZM20.9585 20.6363C20.9585 21.347 20.4031 21.5246 19.7257 21.5246H18.7367V19.7617H19.7257C20.4031 19.748 20.9585 19.9257 20.9585 20.6363Z" fill="#6C7171"/>
</g>
<mask id="mask9_33_36437" style="mask-type:luminance" maskUnits="userSpaceOnUse" x="0" y="0" width="80" height="64">
<path d="M80 0H0V64H80V0Z" fill="white"/>
</mask>
<g mask="url(#mask9_33_36437)">
<path d="M20.078 5.22052H19.0212V16.632H20.078V5.22052Z" fill="#6C7171"/>
</g>
<mask id="mask10_33_36437" style="mask-type:luminance" maskUnits="userSpaceOnUse" x="0" y="0" width="80" height="64">
<path d="M80 0H0V64H80V0Z" fill="white"/>
</mask>
<g mask="url(#mask10_33_36437)">
<path d="M20.078 26.4309H19.0212V37.8424H20.078V26.4309Z" fill="#6C7171"/>
</g>
<mask id="mask11_33_36437" style="mask-type:luminance" maskUnits="userSpaceOnUse" x="0" y="0" width="80" height="64">
<path d="M80 0H0V64H80V0Z" fill="white"/>
</mask>
<g mask="url(#mask11_33_36437)">
<path fill-rule="evenodd" clip-rule="evenodd" d="M26.2286 27.8522L26.6622 26.7999H29.1008L29.5343 27.8522H30.3607L28.315 22.9459H27.4479L25.3887 27.8522H26.2286ZM27.7866 23.9982C27.8137 23.9162 27.8408 23.8479 27.8815 23.7249C27.9221 23.8479 27.9492 23.9162 27.9763 23.9982L28.8298 26.0892H26.9467L27.7866 23.9982Z" fill="#6C7171"/>
</g>
<mask id="mask12_33_36437" style="mask-type:luminance" maskUnits="userSpaceOnUse" x="0" y="0" width="80" height="64">
<path d="M80 0H0V64H80V0Z" fill="white"/>
</mask>
<g mask="url(#mask12_33_36437)">
<path d="M28.0711 9.14282H27.0144V20.5543H28.0711V9.14282Z" fill="#6C7171"/>
</g>
<mask id="mask13_33_36437" style="mask-type:luminance" maskUnits="userSpaceOnUse" x="0" y="0" width="80" height="64">
<path d="M80 0H0V64H80V0Z" fill="white"/>
</mask>
<g mask="url(#mask13_33_36437)">
<path d="M28.0711 30.3531H27.0144V41.7646H28.0711V30.3531Z" fill="#6C7171"/>
</g>
<mask id="mask14_33_36437" style="mask-type:luminance" maskUnits="userSpaceOnUse" x="0" y="0" width="80" height="64">
<path d="M80 0H0V64H80V0Z" fill="white"/>
</mask>
<g mask="url(#mask14_33_36437)">
<path fill-rule="evenodd" clip-rule="evenodd" d="M34.5063 25.5289V30.4352H36.5792C37.3514 30.4352 38.4217 30.1892 38.4217 29.0822C38.4217 28.3169 37.9069 27.9752 37.4598 27.8522C37.8662 27.7156 38.2185 27.3739 38.2185 26.7726C38.2185 25.9389 37.5682 25.5289 36.5521 25.5289H34.5063ZM37.6088 28.9865C37.6088 29.6699 37.0262 29.7245 36.4979 29.7245H35.2921V28.2349H36.6063C37.0398 28.2349 37.6088 28.3306 37.6088 28.9865ZM37.4191 26.8956C37.4191 27.3739 37.0398 27.5652 36.5927 27.5652H35.3057V26.2259H36.4843C37.0533 26.2123 37.4191 26.4036 37.4191 26.8956Z" fill="#6C7171"/>
</g>
<mask id="mask15_33_36437" style="mask-type:luminance" maskUnits="userSpaceOnUse" x="0" y="0" width="80" height="64">
<path d="M80 0H0V64H80V0Z" fill="white"/>
</mask>
<g mask="url(#mask15_33_36437)">
<path d="M36.6334 11.7258H35.5767V23.1373H36.6334V11.7258Z" fill="#6C7171"/>
</g>
<mask id="mask16_33_36437" style="mask-type:luminance" maskUnits="userSpaceOnUse" x="0" y="0" width="80" height="64">
<path d="M80 0H0V64H80V0Z" fill="white"/>
</mask>
<g mask="url(#mask16_33_36437)">
<path d="M36.6334 32.9361H35.5767V44.3476H36.6334V32.9361Z" fill="#6C7171"/>
</g>
<mask id="mask17_33_36437" style="mask-type:luminance" maskUnits="userSpaceOnUse" x="0" y="0" width="80" height="64">
<path d="M80 0H0V64H80V0Z" fill="white"/>
</mask>
<g mask="url(#mask17_33_36437)">
<path fill-rule="evenodd" clip-rule="evenodd" d="M43.5021 17.4247C43.3531 19.379 43.2582 21.6066 42.4047 21.6339C42.2557 21.6339 42.1744 21.6203 42.066 21.5793V22.3173C42.2422 22.3719 42.4047 22.3993 42.5402 22.3993C43.8544 22.3993 44.044 20.3356 44.2337 18.1627H45.8459V22.3309H46.6317V17.4247H43.5021Z" fill="#6C7171"/>
</g>
<mask id="mask18_33_36437" style="mask-type:luminance" maskUnits="userSpaceOnUse" x="0" y="0" width="80" height="64">
<path d="M80 0H0V64H80V0Z" fill="white"/>
</mask>
<g mask="url(#mask18_33_36437)">
<path d="M44.7485 3.62158H43.6918V15.0331H44.7485V3.62158Z" fill="#6C7171"/>
</g>
<mask id="mask19_33_36437" style="mask-type:luminance" maskUnits="userSpaceOnUse" x="0" y="0" width="80" height="64">
<path d="M80 0H0V64H80V0Z" fill="white"/>
</mask>
<g mask="url(#mask19_33_36437)">
<path d="M44.7485 24.8319H43.6918V36.2434H44.7485V24.8319Z" fill="#6C7171"/>
</g>
<mask id="mask20_33_36437" style="mask-type:luminance" maskUnits="userSpaceOnUse" x="0" y="0" width="80" height="64">
<path d="M80 0H0V64H80V0Z" fill="white"/>
</mask>
<g mask="url(#mask20_33_36437)">
<path fill-rule="evenodd" clip-rule="evenodd" d="M51.1703 20.6226V25.5289H54.5572V24.7909H51.9696V23.4106H54.3134V22.6863H51.9696V21.3469H54.5166V20.6226H51.1703Z" fill="#6C7171"/>
</g>
<mask id="mask21_33_36437" style="mask-type:luminance" maskUnits="userSpaceOnUse" x="0" y="0" width="80" height="64">
<path d="M80 0H0V64H80V0Z" fill="white"/>
</mask>
<g mask="url(#mask21_33_36437)">
<path d="M53.2972 6.81958H52.2405V18.2311H53.2972V6.81958Z" fill="#6C7171"/>
</g>
<mask id="mask22_33_36437" style="mask-type:luminance" maskUnits="userSpaceOnUse" x="0" y="0" width="80" height="64">
<path d="M80 0H0V64H80V0Z" fill="white"/>
</mask>
<g mask="url(#mask22_33_36437)">
<path d="M53.2972 28.0298H52.2405V39.4413H53.2972V28.0298Z" fill="#6C7171"/>
</g>
<mask id="mask23_33_36437" style="mask-type:luminance" maskUnits="userSpaceOnUse" x="0" y="0" width="80" height="64">
<path d="M80 0H0V64H80V0Z" fill="white"/>
</mask>
<g mask="url(#mask23_33_36437)">
<path fill-rule="evenodd" clip-rule="evenodd" d="M62.1439 13.8031V15.8804H59.5698V13.8031H58.7841V18.7094H59.5698V16.6184H62.1439V18.7094H62.9297V13.8031H62.1439Z" fill="#6C7171"/>
</g>
<mask id="mask24_33_36437" style="mask-type:luminance" maskUnits="userSpaceOnUse" x="0" y="0" width="80" height="64">
<path d="M80 0H0V64H80V0Z" fill="white"/>
</mask>
<g mask="url(#mask24_33_36437)">
<path d="M60.9111 0H59.8544V11.4115H60.9111V0Z" fill="#6C7171"/>
</g>
<mask id="mask25_33_36437" style="mask-type:luminance" maskUnits="userSpaceOnUse" x="0" y="0" width="80" height="64">
<path d="M80 0H0V64H80V0Z" fill="white"/>
</mask>
<g mask="url(#mask25_33_36437)">
<path d="M60.9111 21.2103H59.8544V32.6218H60.9111V21.2103Z" fill="#6C7171"/>
</g>
<mask id="mask26_33_36437" style="mask-type:luminance" maskUnits="userSpaceOnUse" x="0" y="0" width="80" height="64">
<path d="M80 0H0V64H80V0Z" fill="white"/>
</mask>
<g mask="url(#mask26_33_36437)">
<path fill-rule="evenodd" clip-rule="evenodd" d="M71.5462 26.2532V21.347H70.801L68.1863 24.9276C68.1863 24.7636 68.1863 24.5723 68.1863 24.3809V21.3333H67.4005V26.2396H68.1456L70.7604 22.659C70.7604 22.823 70.7604 23.0143 70.7604 23.192V26.2532H71.5462Z" fill="#6C7171"/>
</g>
<mask id="mask27_33_36437" style="mask-type:luminance" maskUnits="userSpaceOnUse" x="0" y="0" width="80" height="64">
<path d="M80 0H0V64H80V0Z" fill="white"/>
</mask>
<g mask="url(#mask27_33_36437)">
<path d="M69.5276 7.54382H68.4708V18.9553H69.5276V7.54382Z" fill="#6C7171"/>
</g>
<mask id="mask28_33_36437" style="mask-type:luminance" maskUnits="userSpaceOnUse" x="0" y="0" width="80" height="64">
<path d="M80 0H0V64H80V0Z" fill="white"/>
</mask>
<g mask="url(#mask28_33_36437)">
<path d="M69.5276 28.7542H68.4708V40.1657H69.5276V28.7542Z" fill="#6C7171"/>
</g>
<mask id="mask29_33_36437" style="mask-type:luminance" maskUnits="userSpaceOnUse" x="0" y="0" width="80" height="64">
<path d="M80 0H0V64H80V0Z" fill="white"/>
</mask>
<g mask="url(#mask29_33_36437)">
<path fill-rule="evenodd" clip-rule="evenodd" d="M76.017 16.4407V21.347H79.4175V20.6227H76.8163V19.2424H79.1601V18.518H76.8163V17.1787H79.3768V16.4407H76.017Z" fill="#6C7171"/>
</g>
<mask id="mask30_33_36437" style="mask-type:luminance" maskUnits="userSpaceOnUse" x="0" y="0" width="80" height="64">
<path d="M80 0H0V64H80V0Z" fill="white"/>
</mask>
<g mask="url(#mask30_33_36437)">
<path d="M78.1576 2.63757H77.1008V14.0491H78.1576V2.63757Z" fill="#6C7171"/>
</g>
<mask id="mask31_33_36437" style="mask-type:luminance" maskUnits="userSpaceOnUse" x="0" y="0" width="80" height="64">
<path d="M80 0H0V64H80V0Z" fill="white"/>
</mask>
<g mask="url(#mask31_33_36437)">
<path d="M78.1576 23.848H77.1008V35.2594H78.1576V23.848Z" fill="#6C7171"/>
</g>
</g>
<defs>
<clipPath id="clip0_33_36437">
<rect width="80" height="64" fill="white"/>
</clipPath>
</defs>
</svg>
