<svg width="41" height="40" viewBox="0 0 41 40" fill="none" xmlns="http://www.w3.org/2000/svg">
<g clip-path="url(#clip0_115_60991)">
<g filter="url(#filter0_di_115_60991)">
<path d="M30.5 40H10.5C7.18629 40 4.5 37.3137 4.5 34V6C4.5 2.68629 7.18629 0 10.5 0H21.0147C22.606 0 24.1321 0.632142 25.2574 1.75736L34.7426 11.2426C35.8679 12.3679 36.5 13.894 36.5 15.4853V34C36.5 37.3137 33.8137 40 30.5 40Z" fill="white"/>
<path d="M30.5 39.25H10.5C7.60051 39.25 5.25 36.8995 5.25 34V6C5.25 3.10051 7.60051 0.75 10.5 0.75H21.0147C22.4071 0.75 23.7425 1.30312 24.727 2.28769L34.2123 11.773C35.1969 12.7575 35.75 14.0929 35.75 15.4853V34C35.75 36.8995 33.3995 39.25 30.5 39.25Z" stroke="#CECDD4" stroke-width="1.5"/>
</g>
<path d="M23.5 1V9C23.5 11.2091 25.2909 13 27.5 13H35.5" stroke="#CECDD4" stroke-width="1.5"/>
<g filter="url(#filter1_i_115_60991)">
<mask id="path-4-inside-1_115_60991" fill="white">
<path d="M0.5 22C0.5 19.7909 2.29086 18 4.5 18H28.5C30.7091 18 32.5 19.7909 32.5 22V30C32.5 32.2091 30.7091 34 28.5 34H4.5C2.29086 34 0.5 32.2091 0.5 30V22Z"/>
</mask>
<path d="M0.5 22C0.5 19.7909 2.29086 18 4.5 18H28.5C30.7091 18 32.5 19.7909 32.5 22V30C32.5 32.2091 30.7091 34 28.5 34H4.5C2.29086 34 0.5 32.2091 0.5 30V22Z" fill="#375DFB"/>
<path d="M-0.5 22C-0.5 19.2386 1.73858 17 4.5 17H28.5C31.2614 17 33.5 19.2386 33.5 22H31.5C31.5 20.3431 30.1569 19 28.5 19H4.5C2.84315 19 1.5 20.3431 1.5 22H-0.5ZM32.5 34H0.5H32.5ZM4.5 34C1.73858 34 -0.5 31.7614 -0.5 29V22C-0.5 19.2386 1.73858 17 4.5 17V19C2.84315 19 1.5 20.3431 1.5 22V30C1.5 32.2091 2.84315 34 4.5 34ZM28.5 17C31.2614 17 33.5 19.2386 33.5 22V29C33.5 31.7614 31.2614 34 28.5 34C30.1569 34 31.5 32.2091 31.5 30V22C31.5 20.3431 30.1569 19 28.5 19V17Z" fill="black" fill-opacity="0.08" mask="url(#path-4-inside-1_115_60991)"/>
<path d="M7 30H4.28906V22H7.05469C7.84896 22 8.53125 22.1602 9.10156 22.4805C9.67448 22.7982 10.1146 23.2552 10.4219 23.8516C10.7292 24.4479 10.8828 25.1615 10.8828 25.9922C10.8828 26.8255 10.7279 27.5417 10.418 28.1406C10.1107 28.7396 9.66667 29.1992 9.08594 29.5195C8.50781 29.8398 7.8125 30 7 30ZM5.73828 28.7461H6.92969C7.48698 28.7461 7.95182 28.6445 8.32422 28.4414C8.69661 28.2357 8.97656 27.9297 9.16406 27.5234C9.35156 27.1146 9.44531 26.6042 9.44531 25.9922C9.44531 25.3802 9.35156 24.8724 9.16406 24.4687C8.97656 24.0625 8.69922 23.7591 8.33203 23.5586C7.96745 23.3555 7.51432 23.2539 6.97266 23.2539H5.73828V28.7461ZM19.6282 26C19.6282 26.862 19.4667 27.6003 19.1438 28.2148C18.8235 28.8268 18.386 29.2956 17.8313 29.6211C17.2792 29.9466 16.6529 30.1094 15.9524 30.1094C15.2519 30.1094 14.6243 29.9466 14.0696 29.6211C13.5175 29.293 13.08 28.8229 12.7571 28.2109C12.4368 27.5964 12.2766 26.8594 12.2766 26C12.2766 25.138 12.4368 24.401 12.7571 23.7891C13.08 23.1745 13.5175 22.7044 14.0696 22.3789C14.6243 22.0534 15.2519 21.8906 15.9524 21.8906C16.6529 21.8906 17.2792 22.0534 17.8313 22.3789C18.386 22.7044 18.8235 23.1745 19.1438 23.7891C19.4667 24.401 19.6282 25.138 19.6282 26ZM18.1712 26C18.1712 25.3932 18.0761 24.8815 17.886 24.4648C17.6985 24.0456 17.4381 23.7292 17.1048 23.5156C16.7714 23.2995 16.3873 23.1914 15.9524 23.1914C15.5175 23.1914 15.1334 23.2995 14.8001 23.5156C14.4667 23.7292 14.205 24.0456 14.0149 24.4648C13.8274 24.8815 13.7337 25.3932 13.7337 26C13.7337 26.6068 13.8274 27.1198 14.0149 27.5391C14.205 27.9557 14.4667 28.2721 14.8001 28.4883C15.1334 28.7018 15.5175 28.8086 15.9524 28.8086C16.3873 28.8086 16.7714 28.7018 17.1048 28.4883C17.4381 28.2721 17.6985 27.9557 17.886 27.5391C18.0761 27.1198 18.1712 26.6068 18.1712 26ZM28.066 24.6992H26.605C26.5634 24.4596 26.4866 24.2474 26.3746 24.0625C26.2626 23.875 26.1233 23.7161 25.9566 23.5859C25.7899 23.4557 25.5998 23.3581 25.3863 23.293C25.1754 23.2253 24.9475 23.1914 24.7027 23.1914C24.2678 23.1914 23.8824 23.3008 23.5464 23.5195C23.2105 23.7357 22.9475 24.0534 22.7574 24.4727C22.5673 24.8893 22.4722 25.3984 22.4722 26C22.4722 26.612 22.5673 27.1276 22.7574 27.5469C22.9501 27.9635 23.2131 28.2786 23.5464 28.4922C23.8824 28.7031 24.2665 28.8086 24.6988 28.8086C24.9384 28.8086 25.1623 28.7773 25.3707 28.7148C25.5816 28.6497 25.7704 28.5547 25.9371 28.4297C26.1063 28.3047 26.2483 28.151 26.3629 27.9687C26.48 27.7865 26.5608 27.5781 26.605 27.3437L28.066 27.3516C28.0113 27.7318 27.8928 28.0885 27.7105 28.4219C27.5308 28.7552 27.2951 29.0495 27.0035 29.3047C26.7118 29.5573 26.3707 29.7552 25.98 29.8984C25.5894 30.0391 25.1558 30.1094 24.6793 30.1094C23.9761 30.1094 23.3485 29.9466 22.7964 29.6211C22.2444 29.2956 21.8095 28.8255 21.4918 28.2109C21.1741 27.5964 21.0152 26.8594 21.0152 26C21.0152 25.138 21.1754 24.401 21.4957 23.7891C21.816 23.1745 22.2522 22.7044 22.8043 22.3789C23.3563 22.0534 23.9813 21.8906 24.6793 21.8906C25.1246 21.8906 25.5386 21.9531 25.9214 22.0781C26.3043 22.2031 26.6454 22.3867 26.9449 22.6289C27.2444 22.8685 27.4905 23.1628 27.6832 23.5117C27.8785 23.8581 28.0061 24.2539 28.066 24.6992Z" fill="white"/>
</g>
</g>
<defs>
<filter id="filter0_di_115_60991" x="2.5" y="-4" width="36" height="47" filterUnits="userSpaceOnUse" color-interpolation-filters="sRGB">
<feFlood flood-opacity="0" result="BackgroundImageFix"/>
<feColorMatrix in="SourceAlpha" type="matrix" values="0 0 0 0 0 0 0 0 0 0 0 0 0 0 0 0 0 0 127 0" result="hardAlpha"/>
<feOffset dy="1"/>
<feGaussianBlur stdDeviation="1"/>
<feComposite in2="hardAlpha" operator="out"/>
<feColorMatrix type="matrix" values="0 0 0 0 0.894118 0 0 0 0 0.898039 0 0 0 0 0.905882 0 0 0 0.24 0"/>
<feBlend mode="normal" in2="BackgroundImageFix" result="effect1_dropShadow_115_60991"/>
<feBlend mode="normal" in="SourceGraphic" in2="effect1_dropShadow_115_60991" result="shape"/>
<feColorMatrix in="SourceAlpha" type="matrix" values="0 0 0 0 0 0 0 0 0 0 0 0 0 0 0 0 0 0 127 0" result="hardAlpha"/>
<feOffset dy="-4"/>
<feGaussianBlur stdDeviation="2"/>
<feComposite in2="hardAlpha" operator="arithmetic" k2="-1" k3="1"/>
<feColorMatrix type="matrix" values="0 0 0 0 0.813571 0 0 0 0 0.82 0 0 0 0 0.826429 0 0 0 0.32 0"/>
<feBlend mode="normal" in2="shape" result="effect2_innerShadow_115_60991"/>
</filter>
<filter id="filter1_i_115_60991" x="0.5" y="18" width="32" height="20" filterUnits="userSpaceOnUse" color-interpolation-filters="sRGB">
<feFlood flood-opacity="0" result="BackgroundImageFix"/>
<feBlend mode="normal" in="SourceGraphic" in2="BackgroundImageFix" result="shape"/>
<feColorMatrix in="SourceAlpha" type="matrix" values="0 0 0 0 0 0 0 0 0 0 0 0 0 0 0 0 0 0 127 0" result="hardAlpha"/>
<feOffset dy="4"/>
<feGaussianBlur stdDeviation="2"/>
<feComposite in2="hardAlpha" operator="arithmetic" k2="-1" k3="1"/>
<feColorMatrix type="matrix" values="0 0 0 0 1 0 0 0 0 1 0 0 0 0 1 0 0 0 0.08 0"/>
<feBlend mode="normal" in2="shape" result="effect1_innerShadow_115_60991"/>
</filter>
<clipPath id="clip0_115_60991">
<rect width="40" height="40" fill="white" transform="translate(0.5)"/>
</clipPath>
</defs>
</svg>
