<svg width="240" height="56" viewBox="0 0 240 56" fill="none" xmlns="http://www.w3.org/2000/svg">
<g clip-path="url(#clip0_1_2900)">
<path d="M47.9768 0H5.79054C2.59482 0 0 2.59512 0 5.79122V47.9893C0 51.1854 2.59482 53.7805 5.79054 53.7805H20.4308C23.804 53.7805 26.5422 51.042 26.5422 47.6615V31.7288C26.5422 29.0244 28.7342 26.8322 31.4382 26.8322H48.0792C51.2203 26.8322 53.7673 24.2849 53.7673 21.1502V5.79122C53.7673 2.59512 51.1725 0 47.9768 0ZM25.9823 27.5629H21.9808V24.3532H16.6341V21.0683L14.7631 22.5229L13.1789 24.0868C13.0151 24.2507 12.7897 24.3532 12.5439 24.3532H8.97943C6.69872 24.3532 4.85504 22.5093 4.85504 20.2283V5.01268H10.2017V20.2215H16.6341V5.01268H21.9808V20.2215H25.9823V27.5629Z" fill="#5F42C3"/>
<path d="M25.9891 20.2215V27.5629H21.9876V24.3532H16.641V21.0683L14.77 22.5229L13.1858 24.0868C13.0219 24.2507 12.7965 24.3532 12.5507 24.3532H8.98625C6.70555 24.3532 4.86186 22.5093 4.86186 20.2283V5.0127H10.2085V20.2215H16.641V5.0127H21.9876V20.2215H25.9891Z" fill="white"/>
<path d="M45.1157 5.0127H41.5512C41.2985 5.0127 41.0732 5.11513 40.9162 5.28587L40.9025 5.29952L39.3319 6.84977L37.461 8.3044V5.01952H32.1074V24.3532H37.461V20.4537H45.2454C47.451 20.4537 49.2401 18.6644 49.2401 16.4585V9.15123C49.2401 6.87026 47.3895 5.02635 45.1157 5.02635V5.0127ZM37.461 16.7727V9.13757H43.8934V16.7727H37.461Z" fill="white"/>
<path d="M21.9877 30.7793V50.113H16.641V34.9042H12.5575V45.9539H7.70934V34.9042C7.70934 32.6232 9.55985 30.7793 11.8337 30.7793H21.9877Z" fill="white"/>
<path d="M3.84443 50.12H7.70297V45.9609H3.84443V50.12Z" fill="white"/>
<path d="M36.3547 55.9658C34.989 55.9658 33.6438 55.399 32.6674 54.4088C31.6568 53.3844 31.1105 52.0254 31.131 50.5844L31.3153 36.5571C31.3495 33.7161 33.5824 31.4897 36.3889 31.4897C37.6658 31.4897 38.9018 31.9678 39.8646 32.8488L50.2438 42.2936C51.7188 43.6322 52.3197 45.6673 51.8144 47.5863C51.3296 49.4302 49.8819 50.8371 48.0382 51.2537L43.2515 52.3395L39.1886 55.0985C38.3487 55.6654 37.3722 55.9727 36.3616 55.9727L36.3547 55.9658Z" fill="#6141BC"/>
<path d="M47.1301 47.2515L41.7561 48.4739C41.6468 48.5013 41.5375 48.5422 41.4419 48.6105L36.8805 51.7042C36.184 52.1822 35.2144 51.5539 35.228 50.6388L35.4124 36.6115C35.4261 35.6895 36.4162 35.2593 37.099 35.8808L47.4783 45.3256C48.1543 45.9403 47.9563 47.0739 47.1301 47.2583V47.2515Z" fill="white"/>
<path d="M67.0556 9.43115H70.1284V21.8809H76.1033V9.43115H79.1898V21.8809H81.2315L81.0266 27.9453H78.1587V24.3463H67.0624V9.43115H67.0556Z" fill="#5F42C3"/>
<path d="M89.5894 13.2627H92.553V24.3466H89.5894V17.5037L85.8816 24.3466H82.9112V13.2627H85.8816V20.0988L89.5894 13.2627Z" fill="#5F42C3"/>
<path d="M94.3762 18.8899C94.3762 17.1074 94.7381 15.6869 95.4688 14.6352C96.1926 13.5835 97.1964 13.0577 98.4733 13.0577C98.9718 13.0577 99.4224 13.1601 99.839 13.3582V8.61182H102.796V13.365C103.219 13.1601 103.69 13.0577 104.202 13.0577C105.486 13.0577 106.49 13.5835 107.221 14.6284C107.951 15.6801 108.313 17.1689 108.313 19.1016C108.313 20.7747 107.944 22.0996 107.221 23.083C106.49 24.0596 105.493 24.5513 104.23 24.5513C103.704 24.5513 103.226 24.4557 102.803 24.2645V28.6079H99.8458V24.2713C99.4361 24.4557 98.9718 24.5513 98.4596 24.5513C97.2646 24.5513 96.3018 24.1074 95.578 23.2128C94.8542 22.3182 94.4581 21.0889 94.3899 19.5318V18.8899H94.3762ZM97.3329 19.0947C97.3329 21.1367 97.9611 22.1611 99.2107 22.1611C99.4702 22.1611 99.6751 22.1474 99.839 22.1133V15.523C99.6136 15.4752 99.4156 15.4547 99.2312 15.4547C98.6235 15.4547 98.1523 15.7416 97.8314 16.3221C97.5036 16.9025 97.3398 17.8245 97.3398 19.1016L97.3329 19.0947ZM105.336 18.8762C105.336 17.7699 105.165 16.923 104.837 16.3289C104.503 15.7347 104.032 15.4411 103.424 15.4411C103.233 15.4411 103.021 15.4684 102.796 15.5094V22.0996C102.987 22.1406 103.205 22.1611 103.444 22.1611C104.605 22.1611 105.233 21.2801 105.329 19.5182V18.8694L105.336 18.8762Z" fill="#5F42C3"/>
<path d="M120.12 18.9103C120.12 20.6176 119.73 21.9835 118.959 23.0147C118.18 24.0459 117.135 24.5581 115.818 24.5581C114.698 24.5581 113.79 24.1688 113.1 23.3903V28.6147H110.136V13.2693H112.881L112.984 14.3552C113.701 13.4947 114.636 13.0645 115.79 13.0645C117.156 13.0645 118.221 13.5698 118.979 14.5806C119.737 15.5913 120.12 16.9845 120.12 18.7601V18.9103ZM117.156 18.6986C117.156 17.6674 116.972 16.8684 116.61 16.3084C116.241 15.7484 115.715 15.4684 115.019 15.4684C114.09 15.4684 113.448 15.8235 113.1 16.5337V21.0752C113.462 21.8059 114.104 22.1747 115.032 22.1747C116.446 22.1747 117.156 21.0137 117.156 18.6986Z" fill="#5F42C3"/>
<path d="M121.492 18.7054C121.492 17.6059 121.704 16.6293 122.127 15.762C122.55 14.9015 123.158 14.2322 123.957 13.761C124.756 13.2898 125.678 13.0508 126.729 13.0508C128.225 13.0508 129.447 13.5083 130.39 14.4235C131.332 15.3386 131.864 16.5815 131.974 18.1522L131.994 18.9103C131.994 20.6108 131.516 21.9766 130.574 23.001C129.625 24.0322 128.348 24.5444 126.75 24.5444C125.152 24.5444 123.875 24.0322 122.926 23.0079C121.977 21.9835 121.499 20.5903 121.499 18.8283V18.6918L121.492 18.7054ZM124.456 18.9171C124.456 19.9688 124.654 20.7747 125.05 21.3347C125.446 21.8947 126.012 22.1679 126.75 22.1679C127.487 22.1679 128.027 21.8947 128.43 21.3415C128.833 20.7883 129.037 19.9074 129.037 18.6986C129.037 17.6674 128.833 16.8683 128.43 16.2947C128.027 15.721 127.46 15.441 126.729 15.441C125.999 15.441 125.446 15.721 125.05 16.2879C124.654 16.8547 124.456 17.7288 124.456 18.9103V18.9171Z" fill="#5F42C3"/>
<path d="M134.009 24.3529V13.269H138.638C140.147 13.269 141.308 13.5354 142.114 14.0681C142.92 14.6008 143.323 15.3656 143.323 16.3627C143.323 16.8749 143.152 17.3325 142.817 17.7422C142.476 18.152 141.984 18.4593 141.336 18.6778C142.128 18.8281 142.749 19.1217 143.207 19.5656C143.664 20.0027 143.889 20.549 143.889 21.191C143.889 22.2222 143.5 23.0076 142.729 23.5471C141.95 24.0866 140.83 24.3598 139.355 24.3598H134.015L134.009 24.3529ZM136.972 17.7627H138.809C139.847 17.749 140.366 17.4144 140.366 16.7656C140.366 16.3627 140.222 16.0827 139.943 15.912C139.656 15.7412 139.226 15.6593 138.645 15.6593H136.972V17.7695V17.7627ZM136.972 19.75V21.9832H139.362C140.407 21.9832 140.933 21.6212 140.933 20.8837C140.933 20.1461 140.434 19.7637 139.437 19.7432H136.979L136.972 19.75Z" fill="#5F42C3"/>
<path d="M145.228 18.7054C145.228 17.6059 145.439 16.6293 145.863 15.762C146.286 14.9015 146.894 14.2322 147.693 13.761C148.492 13.2898 149.414 13.0508 150.465 13.0508C151.961 13.0508 153.183 13.5083 154.125 14.4235C155.068 15.3386 155.6 16.5815 155.709 18.1522L155.73 18.9103C155.73 20.6108 155.252 21.9766 154.31 23.001C153.36 24.0322 152.084 24.5444 150.486 24.5444C148.888 24.5444 147.611 24.0322 146.662 23.0079C145.713 21.9835 145.235 20.5903 145.235 18.8283V18.6918L145.228 18.7054ZM148.191 18.9171C148.191 19.9688 148.389 20.7747 148.785 21.3347C149.181 21.8947 149.748 22.1679 150.486 22.1679C151.223 22.1679 151.763 21.8947 152.165 21.3415C152.568 20.7883 152.773 19.9074 152.773 18.6986C152.773 17.6674 152.568 16.8683 152.165 16.2947C151.763 15.721 151.196 15.441 150.465 15.441C149.735 15.441 149.181 15.721 148.785 16.2879C148.389 16.8547 148.191 17.7288 148.191 18.9103V18.9171Z" fill="#5F42C3"/>
<path d="M164.231 13.2627H167.195V24.3466H164.231V17.5037L160.524 24.3466H157.553V13.2627H160.524V20.0988L164.231 13.2627ZM165.973 8.77588C165.973 9.68417 165.645 10.4149 164.996 10.9681C164.347 11.5212 163.487 11.8081 162.429 11.8081C161.37 11.8081 160.517 11.5349 159.861 10.9817C159.206 10.4286 158.885 9.69783 158.885 8.77588H160.988C160.988 9.20612 161.118 9.54076 161.37 9.77295C161.63 10.0051 161.978 10.1281 162.429 10.1281C162.879 10.1281 163.221 10.012 163.473 9.77295C163.726 9.53393 163.849 9.20612 163.849 8.77588H165.973Z" fill="#5F42C3"/>
<path d="M184.655 18.9103C184.655 20.6176 184.266 21.9835 183.494 23.0147C182.716 24.0459 181.671 24.5581 180.353 24.5581C179.234 24.5581 178.325 24.1688 177.636 23.3903V28.6147H174.672V13.2693H177.417L177.52 14.3552C178.237 13.4947 179.172 13.0645 180.326 13.0645C181.692 13.0645 182.757 13.5698 183.515 14.5806C184.273 15.5913 184.655 16.9845 184.655 18.7601V18.9103ZM181.692 18.6986C181.692 17.6674 181.507 16.8684 181.145 16.3084C180.777 15.7484 180.251 15.4684 179.554 15.4684C178.626 15.4684 177.984 15.8235 177.636 16.5337V21.0752C177.998 21.8059 178.639 22.1747 179.568 22.1747C180.982 22.1747 181.692 21.0137 181.692 18.6986Z" fill="#5F42C3"/>
<path d="M191.593 24.5581C189.968 24.5581 188.643 24.0596 187.626 23.0625C186.601 22.0654 186.096 20.7337 186.096 19.0742V18.7874C186.096 17.6742 186.315 16.6771 186.745 15.803C187.175 14.9288 187.783 14.2459 188.575 13.7747C189.367 13.3035 190.261 13.0645 191.272 13.0645C192.788 13.0645 193.983 13.5425 194.85 14.4986C195.717 15.4547 196.154 16.8137 196.154 18.5688V19.7776H189.094C189.189 20.5015 189.476 21.082 189.961 21.5191C190.446 21.9562 191.054 22.1747 191.791 22.1747C192.931 22.1747 193.819 21.7581 194.468 20.9318L195.922 22.564C195.478 23.1923 194.878 23.684 194.12 24.0323C193.362 24.3806 192.522 24.5581 191.6 24.5581H191.593ZM191.252 15.4479C190.664 15.4479 190.186 15.6459 189.824 16.042C189.456 16.4381 189.224 17.0118 189.121 17.7493H193.239V17.5103C193.225 16.8547 193.047 16.3425 192.706 15.9806C192.365 15.6186 191.88 15.441 191.252 15.441V15.4479Z" fill="#5F42C3"/>
<path d="M205.381 15.6525H200.791V24.3529H197.827V13.269H205.381V15.6593V15.6525Z" fill="#5F42C3"/>
<path d="M213.301 13.2627H216.264V24.3466H213.301V17.5037L209.593 24.3466H206.622V13.2627H209.593V20.0988L213.301 13.2627Z" fill="#5F42C3"/>
<path d="M218.067 18.7054C218.067 17.6059 218.279 16.6293 218.702 15.762C219.125 14.9015 219.733 14.2322 220.532 13.761C221.331 13.2898 222.253 13.0508 223.304 13.0508C224.8 13.0508 226.022 13.5083 226.964 14.4235C227.907 15.3386 228.439 16.5815 228.549 18.1522L228.569 18.9103C228.569 20.6108 228.091 21.9766 227.149 23.001C226.2 24.0322 224.923 24.5444 223.325 24.5444C221.727 24.5444 220.45 24.0322 219.501 23.0079C218.552 21.9835 218.074 20.5903 218.074 18.8283V18.6918L218.067 18.7054ZM221.031 18.9171C221.031 19.9688 221.229 20.7747 221.625 21.3347C222.021 21.8947 222.587 22.1679 223.325 22.1679C224.062 22.1679 224.602 21.8947 225.005 21.3415C225.408 20.7883 225.612 19.9074 225.612 18.6986C225.612 17.6674 225.408 16.8683 225.005 16.2947C224.602 15.721 224.035 15.441 223.304 15.441C222.574 15.441 222.021 15.721 221.625 16.2879C221.229 16.8547 221.031 17.7288 221.031 18.9103V18.9171Z" fill="#5F42C3"/>
<path d="M240 24.3529H237.03V20.0983H233.349V24.3529H230.386V13.269H233.349V17.7149H237.03V13.269H240V24.3529Z" fill="#5F42C3"/>
<path d="M79.3194 31.2852V46.2003H76.233V33.771H72.2588L72.013 39.0364C71.9106 40.812 71.6852 42.212 71.337 43.2295C70.9887 44.2471 70.4766 44.9983 69.8074 45.4764C69.1382 45.9544 68.2232 46.1934 67.0623 46.2003H66.2634V43.7281L66.7755 43.6734C67.5472 43.571 68.1003 43.1271 68.428 42.3349C68.7558 41.5427 68.9675 40.1427 69.0563 38.1212L69.3157 31.2783H79.3126L79.3194 31.2852Z" fill="#5F42C3"/>
<path d="M88.4832 35.1162H91.4468V46.2001H88.4832V39.3572L84.7754 46.2001H81.805V35.1162H84.7754V41.9523L88.4832 35.1162Z" fill="#5F42C3"/>
<path d="M103.349 46.207H100.378V37.5065H96.6706V46.207H93.707V35.123H103.349V46.207Z" fill="#5F42C3"/>
<path d="M110.717 46.4116C109.092 46.4116 107.767 45.9131 106.749 44.916C105.725 43.9189 105.22 42.5872 105.22 40.9277V40.6409C105.22 39.5277 105.438 38.5307 105.868 37.6565C106.299 36.7824 106.906 36.0994 107.699 35.6282C108.491 35.157 109.385 34.918 110.396 34.918C111.912 34.918 113.107 35.396 113.974 36.3521C114.848 37.3082 115.278 38.6672 115.278 40.4224V41.6311H108.217C108.313 42.355 108.6 42.9355 109.085 43.3726C109.57 43.8097 110.177 44.0282 110.915 44.0282C112.055 44.0282 112.943 43.6116 113.591 42.7853L115.046 44.4175C114.602 45.0458 114.001 45.5375 113.243 45.8858C112.485 46.2341 111.645 46.4116 110.724 46.4116H110.717ZM110.375 37.3014C109.788 37.3014 109.31 37.4994 108.948 37.8955C108.579 38.2916 108.347 38.8653 108.245 39.6028H112.362V39.3638C112.349 38.7082 112.171 38.196 111.83 37.8341C111.488 37.4721 111.003 37.2946 110.375 37.2946V37.3014Z" fill="#5F42C3"/>
<path d="M116.951 35.1162H119.915V43.8167H123.622V35.1162H126.593V43.8372H128.252L128.047 49.4918H125.289V46.2001H116.951V35.1162Z" fill="#5F42C3"/>
<path d="M134.084 42.1162H132.896V46.207H129.932V35.123H132.896V39.2957H133.947L136.364 35.123H140.106L136.48 40.4021L140.448 46.2138H136.501L134.084 42.123V42.1162Z" fill="#5F42C3"/>
</g>
<defs>
<clipPath id="clip0_1_2900">
<rect width="240" height="55.9727" fill="white"/>
</clipPath>
</defs>
</svg>
