<svg width="36" height="38" viewBox="0 0 36 38" fill="none" xmlns="http://www.w3.org/2000/svg">
<g clip-path="url(#clip0_1_2600)">
<path d="M32.0315 0.370918H3.94971C1.82244 0.370918 0.0951691 2.09819 0.0951691 4.22546V32.3118C0.0951691 34.4391 1.82244 36.1664 3.94971 36.1664H13.6952C15.9406 36.1664 17.7634 34.3436 17.7634 32.0936V21.4891C17.7634 19.6891 19.2224 18.23 21.0224 18.23H32.0997C34.1906 18.23 35.8861 16.5346 35.8861 14.4482V4.22546C35.8861 2.09819 34.1588 0.370918 32.0315 0.370918ZM17.3906 18.7164H14.727V16.58H11.1679V14.3936L9.92244 15.3618L8.8679 16.4027C8.75881 16.5118 8.60881 16.58 8.44517 16.58H6.07244C4.55426 16.58 3.32699 15.3527 3.32699 13.8346V3.70728H6.88608V13.83H11.1679V3.70728H14.727V13.83H17.3906V18.7164Z" fill="#5F42C3"/>
<path d="M17.3939 13.8299V18.7163H14.7303V16.5799H11.1712V14.3936L9.92571 15.3618L8.87116 16.4027C8.76207 16.5118 8.61207 16.5799 8.44844 16.5799H6.07571C4.55753 16.5799 3.33025 15.3527 3.33025 13.8345V3.70721H6.88934V13.8299H11.1712V3.70721H14.7303V13.8299H17.3939Z" fill="white"/>
<path d="M30.1286 3.70721H27.7558C27.5876 3.70721 27.4376 3.77539 27.3331 3.88903L27.324 3.89812L26.2785 4.92994L25.0331 5.89812V3.71176H21.4695V16.5799H25.0331V13.9845H30.2149C31.6831 13.9845 32.874 12.7936 32.874 11.3254V6.46176C32.874 4.94357 31.6422 3.7163 30.1286 3.7163V3.70721ZM25.0331 11.5345V6.45267H29.3149V11.5345H25.0331Z" fill="white"/>
<path d="M14.7311 20.8574V33.7256H11.172V23.6029H8.45383V30.9574H5.22656V23.6029C5.22656 22.0847 6.45838 20.8574 7.97202 20.8574H14.7311Z" fill="white"/>
<path d="M2.65554 33.7304H5.22372V30.9622H2.65554V33.7304Z" fill="white"/>
<path d="M24.2937 37.6206C23.3846 37.6206 22.4891 37.2434 21.8391 36.5843C21.1664 35.9025 20.8028 34.9979 20.8164 34.0388L20.9391 24.7025C20.9619 22.8115 22.4482 21.3297 24.3164 21.3297C25.1664 21.3297 25.9891 21.6479 26.6301 22.2343L33.5391 28.5206C34.521 29.4115 34.921 30.7661 34.5846 32.0434C34.2619 33.2706 33.2982 34.207 32.071 34.4843L28.8846 35.207L26.1801 37.0434C25.621 37.4206 24.971 37.6252 24.2982 37.6252L24.2937 37.6206Z" fill="#6141BC"/>
<path d="M31.4661 31.8212L27.8889 32.6349C27.8161 32.6531 27.7434 32.6803 27.6798 32.7258L24.6434 34.7849C24.1798 35.1031 23.5343 34.6849 23.5434 34.0758L23.6661 24.7394C23.6752 24.1258 24.3343 23.8394 24.7889 24.2531L31.698 30.5394C32.148 30.9485 32.0161 31.7031 31.4661 31.8258V31.8212Z" fill="white"/>
</g>
<defs>
<clipPath id="clip0_1_2600">
<rect width="35.7909" height="37.2545" fill="white" transform="translate(0.105827 0.372515)"/>
</clipPath>
</defs>
</svg>
