<svg width="52" height="64" viewBox="0 0 52 64" fill="none" xmlns="http://www.w3.org/2000/svg">
<g clip-path="url(#clip0_33_36425)">
<path d="M5.62291 63.7119C6.00849 63.6906 6.40114 63.6977 6.77964 63.6408C6.99189 63.6088 7.18291 63.4488 7.39515 63.399C7.67815 63.335 7.97883 63.335 8.26536 63.2782C8.55896 63.2177 8.84196 63.0968 9.13556 63.047C9.48223 62.9866 9.83597 62.9937 10.1826 62.9333C10.3383 62.9084 10.4762 62.7875 10.6284 62.7235C10.7522 62.6702 10.8795 62.6062 11.0069 62.6026C11.686 62.5777 12.3652 62.5777 13.0444 62.5528C13.3168 62.5421 13.6387 62.6737 13.8156 62.2968C13.8474 62.2293 14.0773 62.2399 14.2153 62.2399C14.9794 62.2293 15.7435 62.2364 16.5075 62.2115C16.6667 62.2079 16.8188 62.0835 16.9745 62.0266C17.0877 61.9839 17.2009 61.9235 17.3176 61.9199C19.3835 61.895 21.4493 61.8773 23.5116 61.8595C24.021 61.8559 24.35 61.5395 24.35 61.0382C24.3535 58.4924 24.3535 55.9466 24.3641 53.4008C24.3641 53.1875 24.4632 52.9777 24.5375 52.6933C24.5269 52.6826 24.4526 52.5866 24.3783 52.4942C24.4207 52.4942 24.4596 52.4942 24.5021 52.4977C24.5622 52.2346 24.679 51.975 24.679 51.7119C24.6931 49.3653 24.6931 47.0186 24.6825 44.6719C24.6825 44.4337 24.8028 44.1244 24.4278 43.9786C24.3783 43.9608 24.4526 43.5804 24.5021 43.3777C24.5304 43.2639 24.6719 43.1679 24.6754 43.0613C24.6931 42.3075 24.686 41.5537 24.686 40.7999C24.686 40.7288 24.6967 40.615 24.6613 40.5973C24.1024 40.2915 24.442 39.7653 24.3535 39.3457C24.2792 38.9937 24.4809 38.567 24.0422 38.3182C23.9962 38.2933 24.0281 38.1546 23.9998 38.0764C23.9326 37.9093 23.8477 37.7493 23.7699 37.5857C23.7451 37.5359 23.7062 37.4968 23.685 37.447C23.5505 37.0879 23.4232 36.7217 23.2817 36.3662C23.1968 36.1528 22.698 36.135 22.5141 36.3377C22.4858 36.3662 22.4787 36.4159 22.4504 36.4444C22.4362 36.4622 22.4009 36.4657 22.3089 36.4977C22.1674 36.1386 22.0259 35.7688 21.8738 35.4062C21.8349 35.3137 21.7712 35.1715 21.704 35.1644C21.5271 35.1466 21.283 35.1182 21.1805 35.2142C20.8869 35.4879 20.6605 35.8328 20.3881 36.1315C20.3421 36.1813 20.1581 36.1955 20.1228 36.1564C19.9777 35.9893 19.9035 35.7048 19.7337 35.6302C19.525 35.5413 19.2455 35.6053 18.9979 35.6373C18.9165 35.6479 18.8564 35.7795 18.7715 35.8364C18.4885 36.0248 18.1807 36.1777 17.9225 36.391C17.6643 36.6044 17.452 36.6186 17.2469 36.3768C17.1867 36.3022 17.0664 36.2417 16.9709 36.2382C16.5924 36.2275 16.2069 36.2133 15.8284 36.2524C15.5772 36.2773 15.4817 36.2097 15.4923 35.9679C15.4958 35.8542 15.4888 35.7404 15.4994 35.6266C15.5347 35.1893 15.5807 34.7448 14.9263 34.7662C14.9016 34.7662 14.8768 34.7057 14.8485 34.6702C15.0289 34.4284 15.2128 34.2008 15.3791 33.959C15.6161 33.6142 15.4852 33.4222 15.0749 33.3404C14.5796 33.2408 14.3886 33.639 14.1127 33.8702C13.667 34.2435 13.2814 34.6879 12.8498 35.079C12.7119 35.207 12.489 35.239 12.344 35.3599C11.8877 35.7333 11.4526 36.1279 10.9962 36.5226C10.3878 36.1493 10.6354 35.4524 10.5045 34.8124C10.0977 34.8124 9.69801 34.8053 9.29475 34.8195C9.23107 34.823 9.1674 34.9013 9.10373 34.9475C9.0259 35.0044 8.94808 35.0613 8.87379 35.1182C8.84196 35.0328 8.79951 34.9475 8.77828 34.8586C8.65801 34.3537 9.04005 34.0728 9.26645 33.7137C9.36549 33.5608 9.40441 33.3724 9.46808 33.1982C9.36196 33.159 9.1957 33.0524 9.15679 33.0844C8.86672 33.3439 8.59787 33.6319 8.32549 33.9128C8.28658 33.9519 8.25475 34.0017 8.20876 34.023C7.85856 34.1795 7.48713 34.2968 7.15815 34.4888C6.89638 34.6417 6.68413 34.8799 6.37638 35.143C6.32685 34.9084 6.23842 34.6915 6.24196 34.4746C6.24549 34.0799 6.30209 33.6817 6.33747 33.287C6.33747 33.2728 6.33393 33.2515 6.341 33.2444C6.74427 32.8995 6.69475 32.5582 6.34454 32.2062C6.32332 32.1848 6.341 32.0888 6.3693 32.0497C6.59216 31.719 6.80087 31.3777 7.05556 31.0684C7.14046 30.9653 7.33502 30.9653 7.46944 30.8977C7.54373 30.8586 7.59679 30.7804 7.66046 30.7199C7.59325 30.6666 7.52958 30.5706 7.45529 30.5635C7.15461 30.5386 6.89992 30.5315 6.59924 30.7555C6.37992 30.919 5.93066 30.7804 5.58753 30.7555C5.48141 30.7484 5.37883 30.6773 5.2727 30.6346C5.28332 30.8444 5.21257 31.1324 5.31869 31.2462C5.61583 31.559 5.61937 31.9893 5.29747 32.3093C5.01447 32.5902 4.781 32.9208 4.51923 33.2195C4.46617 33.2835 4.38128 33.319 4.39896 33.3048C4.08413 32.9279 3.80468 32.6008 3.53937 32.263C3.4863 32.1955 3.44739 32.0853 3.45446 31.9999C3.49337 31.591 3.26344 31.1146 3.72332 30.7946C3.72685 30.791 3.63134 30.5777 3.57474 30.5742C3.14671 30.5564 2.67623 30.3359 2.3331 30.8017C2.30126 30.8444 2.20575 30.8408 2.14208 30.8622C1.91922 30.9368 1.6999 31.015 1.378 31.1253C1.26126 30.7413 1.25419 30.2257 1.39215 29.8204C1.51242 29.4577 1.94752 29.1982 2.28358 28.8497C2.16331 28.8177 2.00412 28.7537 1.8414 28.7395C1.63269 28.7217 1.41691 28.7502 1.20467 28.7395C1.13746 28.7359 1.04902 28.6826 1.01365 28.6257C0.988884 28.5902 1.02426 28.4835 1.06671 28.4444C1.48766 28.0213 1.91569 27.6053 2.34371 27.1893C2.34018 27.1395 2.3331 27.0897 2.32956 27.0399C2.01827 26.9973 1.70698 26.9582 1.36739 26.9119C1.36031 26.6773 1.2365 26.4426 1.60793 26.2719C1.80249 26.183 1.9263 25.8702 2.01827 25.6319C2.23052 25.0879 2.08902 24.8782 1.5195 24.7928C1.46997 24.7857 1.42045 24.7608 1.37092 24.7395C1.50181 24.5582 1.62208 24.391 1.74235 24.2204C1.70698 24.1848 1.66807 24.1528 1.63269 24.1173C1.40984 24.2204 1.04902 23.9075 0.93936 24.3982C0.932285 24.4337 0.81555 24.4728 0.766026 24.4586C0.716503 24.4444 0.656367 24.3626 0.656367 24.3093C0.663441 23.6266 0.645754 22.9404 0.712965 22.2648C0.730652 22.0728 0.957047 21.8346 1.14807 21.735C1.50888 21.5466 1.30371 21.2657 1.31079 21.031C1.31079 20.9919 1.03841 20.9137 0.893373 20.9102C0.656367 20.8995 0.415822 20.9422 0.175277 20.9493C0.118679 20.9493 0.0302432 20.9102 0.00901871 20.8639C-0.0122058 20.8142 0.00548129 20.7146 0.044393 20.6755C0.207114 20.5048 0.394598 20.3555 0.553782 20.1813C0.613918 20.1137 0.606843 19.9928 0.652829 19.9075C0.903986 19.431 1.2082 18.9973 1.74589 18.8195C1.88031 18.7733 2.06072 18.7982 2.19868 18.8444C2.72575 19.0186 3.09011 18.7519 3.39786 18.3964C3.54291 18.2257 3.40494 18.1119 3.21038 18.1048C2.81419 18.0906 2.418 18.0942 2.02181 18.0728C1.91569 18.0657 1.8131 17.991 1.70698 17.9484C1.78126 17.8844 1.85909 17.8239 1.92984 17.7599C2.19868 17.5075 2.46752 17.2515 2.73283 16.9955C2.94154 16.7964 3.14317 16.5902 3.35541 16.391C3.53229 16.2239 3.53229 16.1315 3.32712 15.9395C2.92385 15.559 2.44984 15.6017 1.97229 15.5768C1.91215 15.5733 1.85555 15.5235 1.7282 15.4595C2.32249 15.0293 2.65147 14.3999 3.33419 14.1155C3.57828 14.0124 4.03107 13.7635 3.77992 13.3048C3.67026 13.1057 3.44739 12.9706 3.28467 12.7999C3.22453 12.7359 3.12902 12.6186 3.15024 12.583C3.32004 12.295 3.50399 12.0142 3.70917 11.751C3.8259 11.6017 4.07352 11.5093 4.11243 11.3528C4.22917 10.8764 4.8376 11.1644 4.96141 10.7484C5.04277 10.7875 5.18427 10.8195 5.19134 10.8693C5.23026 11.111 5.17012 11.3742 5.4991 11.4844C5.55216 11.5022 5.5274 11.7226 5.56277 11.8435C5.58753 11.9253 5.64413 12.0355 5.70781 12.0497C5.77502 12.0639 5.86345 11.9822 5.94128 11.9359C5.95896 11.9253 5.95896 11.8826 5.96604 11.8577C6.01202 11.6728 6.50019 11.719 6.23488 11.3813C6.10753 11.2177 5.88114 11.1324 5.75379 10.9724C5.53447 10.6915 5.16304 10.5102 5.20549 10.0515C5.23026 9.79194 5.26917 9.6426 5.56277 9.58216C5.76441 9.53949 5.92713 9.32616 6.12522 9.24794C6.50019 9.0986 6.26672 8.84616 6.24196 8.64705C6.17121 8.04616 6.60277 7.57683 7.16876 7.47727C7.39515 7.43816 7.58264 7.42394 7.78073 7.20705C7.9293 7.04349 8.33257 7.11816 8.72522 7.07194C8.6757 7.34572 8.69692 7.59816 8.58372 7.74749C8.30073 8.12083 8.61203 8.14572 8.81366 8.16349C9.27706 8.2026 9.74753 8.18838 10.2109 8.20616C10.3878 8.21327 10.5647 8.24172 10.8194 8.27016C10.2781 8.78927 10.0341 9.35105 10.1402 10.023C10.1579 10.1297 10.2746 10.2222 10.3454 10.3217C10.4267 10.2293 10.5576 10.1439 10.5753 10.0408C10.6637 9.54305 11.1767 8.99549 11.6719 8.87816C11.7674 8.85683 11.8452 8.75016 11.9337 8.6826C11.8381 8.62572 11.7497 8.5546 11.6471 8.51194C11.5269 8.4586 11.3924 8.43016 11.2297 8.38038C11.5764 8.02127 12.0186 7.82216 11.9372 7.29594C11.9266 7.22483 11.8735 7.12527 11.8169 7.10749C11.7603 7.08972 11.6754 7.15016 11.6082 7.18572C11.4632 7.25683 11.3288 7.3706 11.1802 7.39549C10.8795 7.44883 10.5045 7.28527 10.4196 7.79727C10.1013 7.4026 10.2003 6.71283 10.4586 6.39283C10.685 6.11549 11.021 5.84172 10.8901 5.38305C10.8583 5.26927 10.8866 5.13772 10.8866 5.05949C11.3747 4.89594 11.8275 4.78927 12.2273 4.58305C12.4041 4.49416 12.5775 4.20972 12.5916 4.00705C12.6235 3.55194 12.9913 3.43461 13.2142 3.16083C13.5998 2.69861 14.0561 2.87994 14.4912 2.83016C14.5726 2.81949 14.7176 2.82305 14.7282 2.78749C14.8556 2.38572 15.2058 2.53149 15.4675 2.46394C15.7718 2.38572 16.076 2.31461 16.4545 2.22216C16.4969 2.62038 16.5429 3.04349 16.5889 3.46661C16.649 3.49149 16.7092 3.51638 16.7693 3.54127C16.8011 3.46661 16.8365 3.39194 16.8648 3.31372C17.0134 2.88349 17.1195 2.43194 17.3211 2.02661C17.452 1.76349 17.6147 1.49683 17.9579 1.37238C18.3576 1.23016 18.729 0.991939 19.1783 1.08438C19.3375 1.11638 19.486 1.19105 19.6381 1.25505C19.7584 1.30483 19.8752 1.35816 19.9919 1.41149C20.0343 1.29061 20.0839 1.16972 20.1122 1.04527C20.1334 0.952828 20.1263 0.853272 20.1299 0.739494C20.4022 0.639939 20.7277 0.782161 20.9222 0.398161C21.0001 0.245272 21.4741 0.302161 21.7641 0.245272C21.9658 0.206161 22.1603 0.145717 22.3337 0.16705C22.6167 0.223939 22.8996 0.309272 23.1862 0.334161C23.593 0.366161 24.0069 0.341272 24.4172 0.355494C24.6436 0.362606 24.8735 0.319939 25.0362 0.604383C25.0858 0.689717 25.4749 0.597272 25.6977 0.547494C25.8251 0.51905 25.9347 0.408828 26.0586 0.344828C26.2107 0.26305 26.3628 0.163494 26.5255 0.124383C26.8191 0.0710501 27.1198 0.0426056 27.4099 -6.10352e-05C27.569 0.725272 27.569 0.721717 28.2765 0.707494C28.5312 0.703939 28.8001 0.764383 29.0371 0.703939C29.4545 0.597272 29.603 0.970606 29.879 1.11283C29.9108 1.13061 29.9214 1.26927 29.8931 1.29772C29.7481 1.44349 29.5606 1.55727 29.4297 1.71372C29.3413 1.82038 29.2493 2.00527 29.2847 2.11549C29.4085 2.50305 29.7445 2.50661 30.0877 2.49238C30.4591 2.47816 30.3707 2.20083 30.3813 1.99816C30.4167 1.43283 30.4768 1.36527 31.0569 1.36172C31.4673 1.35816 31.8776 1.37594 32.2879 1.35816C32.6063 1.34394 32.8539 1.36883 32.8327 1.78483C32.8292 1.85949 32.8928 1.93416 32.9388 2.04794C33.2006 1.85238 33.4235 1.81327 33.6605 2.07638C33.7347 2.16172 33.9647 2.14749 34.1097 2.12261C34.5625 2.03727 34.8667 2.32883 35.1957 2.54216C35.2275 2.56349 35.2028 2.75194 35.1497 2.79461C34.9375 2.97238 34.7995 3.65861 34.9835 3.82927C35.0365 3.87549 35.2028 3.86838 35.2665 3.8186C35.8962 3.32083 36.5966 3.10038 37.3961 3.23549C37.4527 3.24616 37.534 3.24972 37.5553 3.28527C37.8489 3.75816 38.3229 3.55549 38.7297 3.61949C38.8853 3.64438 39.0304 3.75816 39.1825 3.82572C39.2815 3.86838 39.3841 3.91105 39.4902 3.92527C39.7732 3.96083 40.0987 3.86838 40.2472 4.24172C40.2614 4.28083 40.3746 4.2986 40.4418 4.2986C40.8557 4.28438 41.0396 4.62927 41.3155 4.83549C41.4358 4.92438 41.6091 4.94216 41.7542 4.99905C41.8249 5.02749 41.8921 5.07016 41.9417 5.12349C41.9558 5.14127 41.9204 5.23372 41.8851 5.26572C41.6268 5.50394 41.3545 5.72438 41.1033 5.96972C41.0255 6.04438 40.9618 6.17238 40.9618 6.27194C40.9618 6.32527 41.1245 6.42127 41.2094 6.41416C41.5172 6.39283 41.8921 6.59194 42.0902 6.14038C42.1185 6.07994 42.5041 6.06572 42.5466 6.13683C42.7942 6.56349 43.201 6.46038 43.5264 6.4106C43.9827 6.34305 44.1985 6.65594 44.4462 6.88705C44.6513 7.07549 44.7574 7.37416 44.9661 7.72616C44.6442 7.75105 44.4638 7.72616 44.3223 7.7866C44.2304 7.82572 44.1313 8.08172 44.149 8.09594C44.3683 8.26305 44.6089 8.40883 44.8423 8.5546C44.9379 8.61505 45.1253 8.67549 45.1218 8.72527C45.1112 8.88883 45.0793 9.10216 44.9697 9.19105C44.7433 9.37238 44.7433 9.46838 44.9838 9.61771C45.1642 9.73149 45.3164 10.6879 45.1713 10.8444C45.097 10.9226 44.9485 10.951 44.8317 10.9546C44.2233 10.9759 43.6149 10.9688 43.0064 11.0008C42.8154 11.0115 42.6279 11.1075 42.4404 11.1644C42.5925 11.3457 42.7093 11.6017 42.9038 11.687C43.1939 11.815 43.5264 11.8328 43.7776 11.5057C43.8306 11.4382 44.0676 11.4417 44.1702 11.5022C44.432 11.6515 44.6655 11.8506 44.9131 12.0248C44.9343 12.039 44.9732 12.0497 44.9944 12.039C45.4083 11.8719 45.8151 11.6906 46.2325 11.5377C46.4236 11.4702 46.795 11.3955 46.8091 11.431C46.9613 11.8435 47.3433 11.6657 47.6369 11.7795C47.598 12.3377 47.9517 12.4266 48.4081 12.4906C48.638 12.5226 48.8396 12.7537 49.0802 12.9102C49.0696 12.9884 49.0589 13.0844 49.0413 13.1768C48.9953 13.4115 49.0731 13.5395 49.3242 13.5146C49.678 13.4826 49.777 13.6639 49.7983 13.9946C49.8089 14.183 49.9504 14.3644 50.0247 14.5493C50.06 14.6382 50.0989 14.727 50.1096 14.8195C50.1379 15.0293 50.0636 15.2675 50.3713 15.3742C50.4456 15.399 50.4279 15.6799 50.4527 15.8435C50.3572 15.847 50.1945 15.8862 50.1697 15.847C49.9398 15.4417 49.5896 15.6195 49.2818 15.6657C49.2181 15.6764 49.1297 15.8399 49.1368 15.9253C49.1474 16.0497 49.2075 16.199 49.2995 16.2737C49.3879 16.3448 49.54 16.3342 49.6638 16.3519C50.0282 16.4017 50.3784 16.7644 50.4739 17.127C50.5057 17.2479 50.6472 17.3759 50.771 17.4257C51.1354 17.575 51.4467 17.7564 51.5564 18.1724C51.5811 18.2719 51.6483 18.3644 51.7049 18.4497C51.758 18.5315 51.8252 18.6026 51.8853 18.6773C51.7863 18.7128 51.6943 18.7697 51.5917 18.7839C51.1354 18.855 50.771 19.2568 50.81 19.6657C50.817 19.7333 50.8241 19.8186 50.863 19.8648C51.2451 20.327 51.2345 20.4764 50.9055 20.9635C50.7215 21.2337 50.5942 21.5502 50.4668 21.8559C50.3713 22.0835 50.2864 22.0444 50.1414 21.9093C50.0282 21.8062 49.9008 21.703 49.7593 21.6568C49.5719 21.5964 49.349 21.6213 49.3915 21.895C49.4198 22.0942 49.2818 22.4319 49.6957 22.4213C49.9221 22.4142 50.1485 22.4035 50.3749 22.4106C50.764 22.4213 50.9974 22.7093 51.1319 23.0008C51.3547 23.4844 51.2132 23.6373 50.4102 23.8648C50.4845 24.1493 50.5553 24.4373 50.6508 24.8106C50.5553 24.9173 50.3183 25.1093 50.1945 25.3546C50.1237 25.4968 50.1768 25.7813 50.2829 25.9164C50.4562 26.1368 50.6685 26.9546 50.5057 27.1999C50.4598 27.271 50.3183 27.3066 50.2192 27.3102C49.823 27.3208 49.4268 27.3244 49.0306 27.3102C48.921 27.3066 48.8149 27.2248 48.7087 27.1715C48.5885 27.111 48.4717 27.0506 48.355 26.983C48.2347 26.9155 48.1215 26.8195 47.9942 26.7804C47.7607 26.7128 47.5166 26.6453 47.2796 26.6453C47.0462 26.6488 46.8162 26.7413 46.5863 26.791C46.6393 27.0186 45.9849 26.9795 46.3882 27.3457C46.558 27.5022 46.6853 27.7048 46.8551 27.9182C46.4589 28.0853 46.0168 28.1919 45.6772 28.4408C45.4296 28.6222 45.1996 28.7395 44.9202 28.8355C44.8317 28.8675 44.8105 29.159 44.7999 29.3333C44.7964 29.3937 44.9202 29.5253 44.9732 29.5182C45.1607 29.4968 45.4013 29.4862 45.5145 29.3653C45.7762 29.0879 45.9991 28.7999 46.4271 28.7928C46.4943 28.7928 46.5615 28.7146 46.6323 28.6755C46.7596 28.6008 46.887 28.5155 47.0214 28.4479C47.1275 28.3946 47.2725 28.391 47.3468 28.3128C47.644 28.0035 48.0508 28.0319 48.3479 28.3413C48.6132 28.6186 48.9387 28.8319 49.2323 29.0808C49.4056 29.2266 49.5825 29.3724 49.731 29.5466C49.7593 29.5786 49.6638 29.7884 49.586 29.8239C49.2287 29.9733 48.8432 30.0622 48.4965 30.2328C48.3196 30.3217 48.1145 30.5173 48.0791 30.695C47.9906 31.1573 47.7112 31.4239 47.3433 31.6479C47.315 31.6657 47.3044 31.7226 47.2973 31.7617C47.2018 32.1813 47.1134 32.6008 47.0037 33.0168C46.9719 33.1342 46.887 33.319 46.8091 33.3297C46.6287 33.3475 46.4377 33.2906 46.2573 33.2444C46.0698 33.1946 45.8859 33.0737 45.7019 33.0808C45.6383 33.0844 45.5675 33.3688 45.5321 33.5324C45.4083 34.0942 45.1961 34.6133 44.8317 35.0613C44.7928 35.111 44.6089 35.1182 44.5629 35.0755C44.1915 34.7022 43.8448 34.3075 43.4734 33.9377C43.392 33.8559 43.2364 33.8453 43.1161 33.8026C43.1585 33.9235 43.1904 34.0515 43.2399 34.1688C43.2859 34.2755 43.3602 34.3715 43.3955 34.4782C43.4274 34.5706 43.3955 34.6915 43.4415 34.7662C43.5123 34.8835 43.629 34.9795 43.7245 35.0826C43.4238 35.1466 43.3389 35.5626 42.9427 35.5128C42.7057 35.4808 42.4475 35.591 42.2317 35.7084C42.023 35.6408 41.7896 35.4773 41.6162 35.5235C41.3651 35.591 41.1104 35.7759 40.9406 35.9822C40.7248 36.2488 40.5939 36.5866 40.4135 36.9173C40.0032 36.6328 39.5504 36.3342 39.1117 36.0142C38.8889 35.8542 38.5457 35.911 38.4608 36.1777C38.3795 36.4337 38.2415 36.5119 37.9798 36.5439C37.6296 36.5866 37.2227 36.4764 36.9716 36.9066C36.8655 37.0879 36.1155 36.9457 35.9245 36.7644C35.6274 36.4799 35.3337 36.5333 35.1922 36.9208C34.8526 36.9208 34.4528 37.0239 34.1663 36.8888C33.9222 36.775 33.5367 36.6435 33.5119 36.2204C33.5048 36.0995 33.381 35.8862 33.3138 35.8862C33.1369 35.8897 32.9601 35.9857 32.7832 36.0462C32.6381 36.0959 32.4896 36.1884 32.3481 36.1777C32.2773 36.1742 32.1924 35.9928 32.1571 35.879C32.1252 35.7759 32.1641 35.6515 32.1429 35.5413C32.1182 35.4239 32.0616 35.3173 32.0156 35.2035C31.9024 35.2568 31.7962 35.3244 31.6795 35.367C31.5557 35.4133 31.4248 35.4559 31.2939 35.4702C30.8871 35.5128 30.4768 35.5377 30.0169 35.5733C30.1407 35.8257 30.2362 35.9608 30.2681 36.1137C30.2928 36.2382 30.2575 36.487 30.2221 36.4942C30.0523 36.519 29.8684 36.4942 29.6986 36.455C29.5783 36.4266 29.412 36.263 29.3731 36.2915C29.1927 36.4337 28.9026 36.6399 28.9168 36.7928C28.9628 37.2088 28.6338 37.3973 28.4463 37.5857C28.2836 37.7528 28.2164 37.8915 28.1633 38.0906C28.135 38.1973 28.0466 38.2933 27.9794 38.3857C27.9475 38.4284 27.8733 38.4426 27.8556 38.4853C27.7105 38.8373 27.5938 39.2035 27.424 39.5413C27.2542 39.879 27.0349 40.1919 26.8439 40.519C26.805 40.5866 26.7837 40.6719 26.7696 40.7537C26.7342 40.9493 26.8156 41.1804 26.5149 41.2693C26.4477 41.2906 26.4265 41.5466 26.4229 41.6959C26.4123 43.6159 26.4052 45.5359 26.4052 47.4559C26.4052 49.831 26.4123 52.2026 26.4194 54.5777C26.4229 55.1039 26.4371 55.6302 26.4547 56.1564C26.4583 56.2524 26.4547 56.3768 26.5078 56.4408C26.8722 56.8746 26.9111 57.2835 26.4972 57.7137C26.4371 57.7777 26.4547 57.9306 26.4547 58.0408C26.4512 58.695 26.4406 59.3493 26.4583 60.0035C26.4654 60.3022 26.3239 60.647 26.7094 60.871C26.7979 60.9208 26.7519 61.2159 26.7519 61.4008C26.7484 61.7315 26.8757 61.8666 27.2294 61.8666C29.366 61.8702 31.5026 61.895 33.6357 61.927C33.8196 61.9306 33.9965 62.0622 34.1805 62.1226C34.3078 62.1653 34.4422 62.215 34.5767 62.2186C35.3549 62.2328 36.1332 62.2222 36.9115 62.2506C37.0777 62.2577 37.2369 62.3928 37.4032 62.4568C37.527 62.503 37.6614 62.5493 37.7923 62.5528C38.5705 62.5742 39.3487 62.5742 40.127 62.6026C40.2649 62.6097 40.3958 62.7306 40.5302 62.791C40.6505 62.8444 40.7672 62.9226 40.891 62.9333C41.2554 62.9653 41.6233 62.9688 41.9912 62.983C42.0478 62.9866 42.1256 62.9653 42.1574 62.9973C42.6315 63.4666 43.3 63.1146 43.7847 63.3564C44.4497 63.687 45.143 63.6053 45.8187 63.7297C45.8328 63.7333 45.8399 63.7759 45.854 63.8008C45.5746 64.0106 6.00849 64.0177 5.62291 63.7119Z" fill="#6C7171"/>
<path d="M16.9163 11.5475V23.3053H14.5035V11.5475H16.9163Z" fill="white"/>
<path d="M24.1947 11.5475V23.3053H21.7818V11.5475H24.1947ZM27.8099 11.5475V13.4452H18.2231V11.5475H27.8099Z" fill="white"/>
<path d="M35.7751 19.4035H38.188C38.1395 20.1949 37.9219 20.8975 37.5346 21.5112C37.1526 22.125 36.6173 22.6041 35.9286 22.9486C35.2454 23.2932 34.4222 23.4655 33.4592 23.4655C32.7061 23.4655 32.0309 23.3363 31.4338 23.0778C30.8366 22.8141 30.3255 22.4372 29.9005 21.9473C29.4809 21.4574 29.1608 20.8652 28.9402 20.1707C28.7196 19.4762 28.6094 18.6983 28.6094 17.8369V17.0213C28.6094 16.1599 28.7223 15.382 28.9483 14.6875C29.1796 13.9876 29.5078 13.3928 29.9328 12.9028C30.3632 12.4129 30.8769 12.0361 31.4741 11.7723C32.0713 11.5085 32.7384 11.3766 33.4754 11.3766C34.4545 11.3766 35.2803 11.5543 35.9527 11.9096C36.6308 12.2649 37.155 12.7548 37.5265 13.3793C37.9028 14.0038 38.1289 14.7144 38.2042 15.5112H35.7832C35.7563 15.0374 35.6622 14.6364 35.5009 14.308C35.3395 13.9742 35.0947 13.7238 34.7665 13.557C34.4437 13.3847 34.0134 13.2985 33.4754 13.2985C33.0719 13.2985 32.7195 13.3739 32.4183 13.5246C32.117 13.6754 31.8642 13.9042 31.6597 14.211C31.4553 14.5179 31.3019 14.9055 31.1997 15.3739C31.1029 15.8369 31.0545 16.3806 31.0545 17.0051V17.8369C31.0545 18.4452 31.1002 18.9809 31.1917 19.4439C31.2831 19.9015 31.423 20.2892 31.6113 20.6068C31.805 20.919 32.0524 21.1559 32.3537 21.3174C32.6604 21.4735 33.0289 21.5516 33.4592 21.5516C33.965 21.5516 34.3819 21.4708 34.71 21.3094C35.0382 21.1478 35.2884 20.9082 35.4606 20.5906C35.6382 20.273 35.7429 19.8773 35.7751 19.4035Z" fill="white"/>
<path d="M16.9756 28.2103V28.8067H15.0396V28.2103H16.9756ZM15.2958 25.0957V28.8067H14.5035V25.0957H15.2958Z" fill="white"/>
<path d="M19.2125 26.0482V28.806H18.4493V26.0482H19.2125ZM18.4017 25.3294C18.4017 25.2224 18.4405 25.134 18.5179 25.0643C18.5954 24.9947 18.6993 24.9598 18.8296 24.9598C18.9581 24.9598 19.0611 24.9947 19.1386 25.0643C19.2178 25.134 19.2574 25.2224 19.2574 25.3294C19.2574 25.4365 19.2178 25.5248 19.1386 25.5945C19.0611 25.6642 18.9581 25.699 18.8296 25.699C18.6993 25.699 18.5954 25.6642 18.5179 25.5945C18.4405 25.5248 18.4017 25.4365 18.4017 25.3294Z" fill="white"/>
<path d="M21.6297 26.5795V29.8675H20.869V26.0494H21.5742L21.6297 26.5795ZM23.4388 27.3977V27.4512C23.4388 27.6517 23.4142 27.8378 23.3649 28.0094C23.3174 28.181 23.2469 28.3305 23.1536 28.458C23.0603 28.5837 22.9441 28.6823 22.805 28.7536C22.6677 28.8233 22.5092 28.8581 22.3296 28.8581C22.1553 28.8581 22.0038 28.8242 21.8753 28.7562C21.7468 28.6882 21.6385 28.5931 21.5504 28.4707C21.4642 28.3467 21.3946 28.2031 21.3418 28.04C21.289 27.8768 21.2485 27.7018 21.2203 27.5149V27.3747C21.2485 27.1742 21.289 26.9907 21.3418 26.8242C21.3946 26.656 21.4642 26.5107 21.5504 26.3884C21.6385 26.2643 21.7459 26.1683 21.8727 26.1003C22.0012 26.0324 22.1518 25.9984 22.3243 25.9984C22.5056 25.9984 22.665 26.0315 22.8023 26.0978C22.9414 26.1641 23.0577 26.2592 23.151 26.3833C23.2461 26.5073 23.3174 26.6552 23.3649 26.8267C23.4142 26.9984 23.4388 27.1887 23.4388 27.3977ZM22.6756 27.4512V27.3977C22.6756 27.2804 22.665 27.1726 22.6439 27.074C22.6245 26.9737 22.5928 26.8862 22.5488 26.8115C22.5065 26.7367 22.4502 26.6789 22.3797 26.6382C22.3111 26.5957 22.2275 26.5744 22.1288 26.5744C22.025 26.5744 21.936 26.5906 21.8621 26.6229C21.7899 26.6552 21.7309 26.7019 21.6851 26.763C21.6394 26.8242 21.605 26.8973 21.5821 26.9822C21.5592 27.0672 21.5452 27.1632 21.5399 27.2702V27.6245C21.5487 27.7503 21.5733 27.8633 21.6138 27.9635C21.6543 28.0621 21.7168 28.1402 21.8013 28.198C21.8858 28.2558 21.9968 28.2847 22.1341 28.2847C22.2345 28.2847 22.319 28.2634 22.3877 28.221C22.4564 28.1768 22.5118 28.1165 22.5541 28.04C22.5981 27.9635 22.6289 27.8752 22.6465 27.7749C22.6659 27.6746 22.6756 27.5668 22.6756 27.4512Z" fill="white"/>
<path d="M26.2542 28.8581C26.0324 28.8581 25.8334 28.8242 25.6573 28.7562C25.4812 28.6865 25.3316 28.5905 25.2083 28.4682C25.0868 28.3458 24.9935 28.204 24.9284 28.0425C24.8632 27.8794 24.8306 27.7061 24.8306 27.5226V27.4206C24.8306 27.2116 24.8614 27.0205 24.9231 26.8472C24.9847 26.6738 25.0727 26.5235 25.1872 26.396C25.3034 26.2686 25.4443 26.1709 25.6098 26.1029C25.7753 26.0332 25.9619 25.9984 26.1697 25.9984C26.3722 25.9984 26.5518 26.0307 26.7085 26.0953C26.8652 26.1598 26.9963 26.2516 27.102 26.3705C27.2094 26.4895 27.2904 26.6322 27.345 26.7987C27.3996 26.9635 27.4268 27.1471 27.4268 27.3493V27.6551H25.1555V27.1657H26.6794V27.1097C26.6794 27.0077 26.66 26.9168 26.6213 26.837C26.5843 26.7554 26.528 26.6908 26.4523 26.6432C26.3766 26.5957 26.2797 26.5719 26.1618 26.5719C26.0614 26.5719 25.9751 26.5931 25.9029 26.6356C25.8307 26.6781 25.7718 26.7375 25.726 26.814C25.6819 26.8905 25.6485 26.9805 25.6256 27.0842C25.6045 27.1861 25.5939 27.2983 25.5939 27.4206V27.5226C25.5939 27.633 25.6098 27.735 25.6414 27.8284C25.6749 27.9219 25.7216 28.0026 25.7814 28.0706C25.8431 28.1385 25.917 28.1912 26.0033 28.2286C26.0913 28.266 26.1908 28.2847 26.3017 28.2847C26.4391 28.2847 26.5667 28.2592 26.6847 28.2082C26.8044 28.1555 26.9074 28.0765 26.9937 27.9712L27.3635 28.3586C27.3036 28.4418 27.2217 28.5217 27.1178 28.5982C27.0157 28.6746 26.8925 28.7375 26.7481 28.7868C26.6037 28.8344 26.4391 28.8581 26.2542 28.8581Z" fill="white"/>
<path d="M30.2886 26.0479V26.5679H28.6246V26.0479H30.2886ZM29.0367 25.3674H29.7973V27.9748C29.7973 28.0547 29.8079 28.1159 29.829 28.1583C29.8519 28.2008 29.8853 28.2305 29.9294 28.2475C29.9734 28.2628 30.0288 28.2705 30.0957 28.2705C30.1433 28.2705 30.1856 28.2688 30.2225 28.2654C30.2613 28.2603 30.2938 28.2552 30.3203 28.2501L30.3229 28.7904C30.2578 28.8108 30.1873 28.827 30.1116 28.8389C30.0359 28.8508 29.9523 28.8567 29.8607 28.8567C29.6934 28.8567 29.5473 28.8304 29.4222 28.7777C29.299 28.7233 29.2039 28.6367 29.137 28.5177C29.0701 28.3988 29.0367 28.2425 29.0367 28.0487V25.3674Z" fill="white"/>
<path d="M33.2938 28.0451C33.2938 27.9924 33.2779 27.9448 33.2462 27.9023C33.2145 27.8599 33.1555 27.8208 33.0693 27.7851C32.9847 27.7477 32.8624 27.7138 32.7021 27.6831C32.5578 27.6526 32.4231 27.6143 32.2981 27.5685C32.1748 27.5209 32.0674 27.4639 31.9758 27.3977C31.8861 27.3314 31.8156 27.2533 31.7645 27.1632C31.7135 27.0714 31.688 26.9669 31.688 26.8497C31.688 26.7342 31.7135 26.6254 31.7645 26.5235C31.8174 26.4215 31.8922 26.3315 31.989 26.2533C32.0877 26.1734 32.2074 26.1114 32.3482 26.0672C32.4908 26.0213 32.6511 25.9984 32.8289 25.9984C33.0772 25.9984 33.2902 26.0366 33.4681 26.1131C33.6477 26.1896 33.785 26.2949 33.8801 26.4291C33.9769 26.5617 34.0253 26.7129 34.0253 26.8828H33.2647C33.2647 26.8115 33.2488 26.7477 33.2172 26.6917C33.1872 26.6339 33.1397 26.5889 33.0746 26.5566C33.0112 26.5226 32.9284 26.5056 32.8263 26.5056C32.7418 26.5056 32.6687 26.52 32.6071 26.549C32.5454 26.5761 32.4979 26.6135 32.4645 26.6611C32.4328 26.707 32.4169 26.758 32.4169 26.814C32.4169 26.8565 32.4257 26.8947 32.4433 26.9287C32.4627 26.961 32.4935 26.9907 32.5357 27.0179C32.578 27.0451 32.6326 27.0706 32.6995 27.0944C32.7682 27.1165 32.8527 27.1369 32.953 27.1556C33.1591 27.1964 33.343 27.2499 33.5051 27.3161C33.667 27.3807 33.7956 27.4691 33.8906 27.5812C33.9857 27.6916 34.0333 27.8369 34.0333 28.017C34.0333 28.1394 34.0051 28.2515 33.9488 28.3535C33.8924 28.4554 33.8114 28.5447 33.7058 28.6211C33.6001 28.6959 33.4734 28.7545 33.3255 28.797C33.1793 28.8377 33.0147 28.8581 32.8316 28.8581C32.5657 28.8581 32.3403 28.8123 32.1554 28.7205C31.9723 28.6287 31.8332 28.5124 31.7381 28.3713C31.6448 28.2286 31.5981 28.0825 31.5981 27.9329H32.3192C32.3227 28.0332 32.3491 28.1139 32.3984 28.1751C32.4495 28.2362 32.5137 28.2804 32.5912 28.3076C32.6704 28.3348 32.7558 28.3484 32.8474 28.3484C32.946 28.3484 33.0279 28.3357 33.093 28.3102C33.1582 28.283 33.2075 28.2473 33.2409 28.2031C33.2762 28.1572 33.2938 28.1045 33.2938 28.0451Z" fill="white"/>
<path d="M36.3152 24.8897V28.8072H35.5543V24.8897H36.3152ZM38.1165 26.0494L36.8748 27.4155L36.2094 28.0655L35.9321 27.5354L36.4603 26.888L37.2024 26.0494H38.1165ZM37.3266 28.8072L36.4815 27.5328L37.0071 27.0893L38.2035 28.8072H37.3266Z" fill="white"/>
</g>
<defs>
<clipPath id="clip0_33_36425">
<rect width="52" height="64" fill="white"/>
</clipPath>
</defs>
</svg>
