<svg width="64" height="64" viewBox="0 0 64 64" fill="none" xmlns="http://www.w3.org/2000/svg">
<path d="M12.2234 38.4893L6.43249 35.3026C4.52749 34.2545 2.99438 35.341 2.99438 37.7176V44.8779C2.99438 47.2583 4.53129 50.0649 6.43249 51.1552L7.07382 51.5238C7.06623 51.2013 7.06243 50.8788 7.06243 50.5563C7.06243 45.331 8.07185 41.6567 9.31656 42.3516C10.5688 43.0504 11.5821 47.8803 11.5821 53.1363C11.5821 53.4627 11.5783 53.7852 11.5707 54.0962L12.2234 54.4686C14.1701 55.582 15.7526 54.5262 15.7526 52.1036V44.8127C15.7526 42.39 14.1701 39.5566 12.2234 38.4854V38.4893Z" fill="#6C7171"/>
<path d="M12.06 21.3236L6.26533 18.2713C4.36033 17.2693 2.82343 18.3942 2.82343 20.7707V27.9311C2.82343 30.3077 4.36033 33.0835 6.26153 34.1239L12.0562 37.3029C13.9992 38.3703 15.5854 37.276 15.5854 34.8534V27.5625C15.5854 25.1399 14.003 22.341 12.06 21.3198V21.3236ZM11.0013 30.7031C9.8742 31.7397 8.14756 31.256 7.13434 29.6281C6.12492 28.0079 6.20081 25.8579 7.3089 24.8136C8.42837 23.7693 10.155 24.2377 11.1758 25.8617C12.2004 27.4896 12.1207 29.6588 11.0013 30.7031Z" fill="#6C7171"/>
<path d="M26.6397 46.421L20.6135 43.1038C18.6326 42.0134 17.035 43.1038 17.035 45.5303V52.8327C17.035 55.2591 18.6288 58.1386 20.6097 59.2751L26.6359 62.7228C28.6585 63.8823 30.3093 62.8226 30.3093 60.3539V52.9171C30.3093 50.4446 28.6623 47.5344 26.6397 46.421ZM25.5354 55.9464C24.3704 56.9638 22.5716 56.4109 21.5167 54.7178C20.4655 53.0285 20.549 50.8362 21.6988 49.815C22.8562 48.7899 24.655 49.3235 25.7175 51.0167C26.7839 52.7137 26.7004 54.9251 25.5316 55.9464H25.5354Z" fill="#6C7171"/>
<path d="M27.3 29.3474L23.2775 27.232V27.2243L19.6952 25.3392C18.1431 24.5406 16.887 25.4352 16.887 27.351V36.454C16.887 38.3852 18.1545 40.6466 19.7218 41.5066C21.3042 42.3743 22.5868 41.5066 22.5906 39.5562V39.4334L27.3 41.9942C28.9659 42.9003 30.3169 41.9942 30.3169 39.9632V34.6112C30.3169 32.5878 28.9697 30.2305 27.3038 29.3551L27.3 29.3474ZM26.5714 36.7689C25.5696 37.6711 24.1237 37.3908 23.3306 36.1469C22.5413 34.8991 22.7083 33.1637 23.7025 32.2653C24.6968 31.3554 26.1502 31.628 26.9433 32.8796C27.7402 34.1236 27.5732 35.8705 26.5676 36.7689H26.5714Z" fill="#6C7171"/>
<path d="M44.2896 43.0203L38.476 46.3259C36.5178 47.4394 34.9202 50.3496 34.9202 52.8183V60.2512C34.9202 62.7237 36.5141 63.7719 38.4722 62.6009L39.1287 62.2093C39.1211 61.8906 39.1173 61.5643 39.1173 61.2302C39.1173 55.8744 40.1419 50.9408 41.398 50.2152C42.6503 49.4934 43.6597 53.2137 43.6597 58.5274C43.6597 58.8575 43.6559 59.1877 43.6483 59.5141L44.2934 59.1301C46.2022 57.9937 47.7353 55.118 47.7353 52.6992V45.4314C47.7353 43.0164 46.1984 41.9338 44.2934 43.0164L44.2896 43.0203Z" fill="#6C7171"/>
<path d="M44.1263 25.9193L38.305 29.0522C36.3469 30.1042 34.7493 32.9683 34.7493 35.4332V42.8584C34.7493 45.3271 36.3431 46.4213 38.3012 45.3118L44.1263 42.0099C46.0313 40.9311 47.5682 38.1015 47.5682 35.6866V28.4264C47.5682 26.0153 46.0313 24.8865 44.1263 25.9116V25.9193ZM43.0789 36.5197C41.9556 38.8118 40.2214 40.2438 39.193 39.7179C38.1608 39.1919 38.2405 36.8998 39.3714 34.6C40.5022 32.3079 42.2364 30.9028 43.2535 31.4403C44.2667 31.9739 44.1908 34.243 43.0789 36.5197Z" fill="#6C7171"/>
<path d="M57.8861 35.288L52.3457 38.4362C50.4824 39.4959 48.9607 42.3139 48.9607 44.7212V51.9737C48.9607 54.3848 50.4862 55.4291 52.3495 54.3157L57.8899 51.0062C59.7076 49.9235 61.1686 47.1361 61.1686 44.7788V37.6837C61.161 35.3264 59.6962 34.2513 57.8823 35.2841L57.8861 35.288ZM56.8919 45.658C55.8293 47.9078 54.1748 49.3399 53.1957 48.8446C52.2129 48.3494 52.2887 46.1034 53.3627 43.8458C54.4328 41.596 56.0874 40.1869 57.055 40.6937C58.0227 41.2005 57.9468 43.4197 56.8919 45.658Z" fill="#6C7171"/>
<path d="M58.4707 18.1946L54.8125 20.1642V20.1565L51.4806 21.9534C50.012 22.7596 48.8167 24.948 48.8167 26.8485V35.8786C48.8167 37.7983 50.031 38.6621 51.511 37.8252C52.991 36.9843 54.1825 34.7729 54.1825 32.8724V32.7534L58.4745 30.35C59.9658 29.513 61.1612 27.2824 61.1574 25.3473V20.2487C61.1536 18.3213 59.9582 17.3999 58.4669 18.2023L58.4707 18.1946ZM57.8218 26.0576C56.9186 27.9504 55.598 29.1636 54.8694 28.772C54.1408 28.3727 54.2926 26.5106 55.2071 24.6179C56.1179 22.7251 57.4347 21.5272 58.1557 21.9342C58.8729 22.3296 58.7249 24.1763 57.8218 26.0538V26.0576Z" fill="#6C7171"/>
<path d="M28.1272 10.8077L22.416 7.92056C20.5337 6.9684 17.4182 6.94153 15.4297 7.85913L9.34283 10.6772C7.28224 11.6332 7.14183 13.215 9.05442 14.2055L9.69954 14.5396C9.96518 14.4052 10.2384 14.2747 10.5192 14.1403C14.9895 12.0286 19.5471 10.8615 20.7842 11.4911C22.0251 12.1246 19.494 14.3438 15.0464 16.4861C14.7656 16.6205 14.4848 16.751 14.2078 16.8816L14.8605 17.2194C16.8034 18.2292 20.0442 18.2368 22.0744 17.2386L28.0703 14.29C30.0246 13.3302 30.0398 11.7676 28.131 10.8039L28.1272 10.8077Z" fill="#6C7171"/>
<path d="M41.2837 4.28891L35.6674 1.52843C33.8193 0.618507 30.8252 0.580114 28.9581 1.44012L23.2431 4.08543C21.3116 4.97999 21.2509 6.47733 23.1293 7.42565L28.8367 10.3051C30.7455 11.2688 33.8534 11.288 35.7547 10.3551L41.3748 7.59458C43.2077 6.69233 43.1546 5.21419 41.2799 4.29275L41.2837 4.28891ZM32.586 7.47556C30.1839 7.5485 28.1309 6.87278 27.9942 5.9667C27.8614 5.0683 29.6716 4.28891 32.0395 4.2198C34.4075 4.15453 36.4377 4.81874 36.5971 5.7133C36.7565 6.61171 34.9691 7.40261 32.5822 7.4794L32.586 7.47556Z" fill="#6C7171"/>
<path d="M42.2361 17.9422L36.3579 14.9705C34.4188 13.9915 31.2843 13.9761 29.3337 14.9437L23.3493 17.9038C21.3229 18.9058 21.2583 20.5529 23.2317 21.5742L29.2123 24.6802C31.216 25.7207 34.4757 25.713 36.468 24.6648L42.35 21.5703C44.2663 20.5606 44.2094 18.9404 42.2399 17.9422H42.2361ZM33.1361 21.5319C30.6278 21.6395 28.4685 20.9177 28.3243 19.9233C28.1801 18.9366 30.0813 18.0612 32.5631 17.9614C35.0335 17.8615 37.17 18.5718 37.3408 19.5509C37.5116 20.5337 35.6369 21.4244 33.1361 21.5319Z" fill="#6C7171"/>
<path d="M55.9279 11.4915L52.08 9.59876H52.0876L48.6495 7.90561C47.1429 7.17614 44.7712 7.16078 43.3291 7.87106L36.3353 11.3303C34.8174 12.079 34.825 13.3152 36.3581 14.0908C37.9026 14.8702 40.3806 14.8817 41.8871 14.1177L41.982 14.0677L46.5472 16.3598C48.16 17.1699 50.6911 17.1738 52.209 16.379L56.148 14.3058C57.6166 13.5341 57.518 12.2748 55.9279 11.4915ZM49.4881 14.1253C47.4427 14.2021 45.6668 13.6953 45.5188 13.0004C45.3784 12.3016 46.9153 11.6835 48.9379 11.6144C50.9605 11.5415 52.7213 12.0406 52.8769 12.7317C53.0401 13.4227 51.5184 14.0485 49.4881 14.1215V14.1253Z" fill="#6C7171"/>
</svg>
