<svg width="65" height="64" viewBox="0 0 65 64" fill="none" xmlns="http://www.w3.org/2000/svg">
<path d="M0.333374 25.6C0.333374 16.6392 0.333374 12.1587 2.07727 8.73615C3.61124 5.72556 6.05893 3.27787 9.06953 1.7439C12.4921 0 16.9725 0 25.9334 0H38.7334C47.6942 0 52.1746 0 55.5972 1.7439C58.6078 3.27787 61.0555 5.72556 62.5895 8.73615C64.3334 12.1587 64.3334 16.6392 64.3334 25.6V38.4C64.3334 47.3608 64.3334 51.8413 62.5895 55.2638C61.0555 58.2744 58.6078 60.7221 55.5972 62.2561C52.1746 64 47.6942 64 38.7334 64H25.9334C16.9725 64 12.4921 64 9.06953 62.2561C6.05893 60.7221 3.61124 58.2744 2.07727 55.2638C0.333374 51.8413 0.333374 47.3608 0.333374 38.4V25.6Z" fill="url(#paint0_linear_1_2886)"/>
<g filter="url(#filter0_d_1_2886)">
<path fill-rule="evenodd" clip-rule="evenodd" d="M14.3431 18.3431C12 20.6863 12 24.4575 12 32C12 39.5425 12 43.3137 14.3431 45.6569C16.6863 48 20.4575 48 28 48H36C43.5425 48 47.3137 48 49.6569 45.6569C52 43.3137 52 39.5425 52 32C52 24.4575 52 20.6863 49.6569 18.3431C47.3137 16 43.5425 16 36 16H28C20.4575 16 16.6863 16 14.3431 18.3431ZM45.1523 23.0397C45.6827 23.6761 45.5967 24.622 44.9603 25.1523L40.5673 28.8131C38.7946 30.2905 37.3578 31.4878 36.0896 32.3034C34.7687 33.1531 33.4822 33.6898 32 33.6898C30.5178 33.6898 29.2313 33.1531 27.9104 32.3034C26.6422 31.4878 25.2054 30.2905 23.4327 28.8132L19.0397 25.1523C18.4033 24.622 18.3173 23.6761 18.8477 23.0397C19.378 22.4033 20.3239 22.3173 20.9603 22.8477L25.2781 26.4458C27.144 28.0008 28.4395 29.0768 29.5332 29.7803C30.5919 30.4612 31.3099 30.6897 32 30.6897C32.6901 30.6897 33.4081 30.4612 34.4668 29.7803C35.5605 29.0768 36.856 28.0008 38.7219 26.4458L43.0397 22.8477C43.6761 22.3173 44.622 22.4033 45.1523 23.0397Z" fill="url(#paint1_linear_1_2886)"/>
</g>
<defs>
<filter id="filter0_d_1_2886" x="7.5" y="7.75" width="49" height="49" filterUnits="userSpaceOnUse" color-interpolation-filters="sRGB">
<feFlood flood-opacity="0" result="BackgroundImageFix"/>
<feColorMatrix in="SourceAlpha" type="matrix" values="0 0 0 0 0 0 0 0 0 0 0 0 0 0 0 0 0 0 127 0" result="hardAlpha"/>
<feOffset dy="0.25"/>
<feGaussianBlur stdDeviation="0.25"/>
<feComposite in2="hardAlpha" operator="out"/>
<feColorMatrix type="matrix" values="0 0 0 0 0 0 0 0 0 0 0 0 0 0 0 0 0 0 0.2 0"/>
<feBlend mode="normal" in2="BackgroundImageFix" result="effect1_dropShadow_1_2886"/>
<feBlend mode="normal" in="SourceGraphic" in2="effect1_dropShadow_1_2886" result="shape"/>
</filter>
<linearGradient id="paint0_linear_1_2886" x1="32.3334" y1="0" x2="32.3334" y2="64" gradientUnits="userSpaceOnUse">
<stop stop-color="#8A6EEC"/>
<stop offset="1" stop-color="#5F42C3"/>
</linearGradient>
<linearGradient id="paint1_linear_1_2886" x1="32" y1="16" x2="32" y2="48" gradientUnits="userSpaceOnUse">
<stop stop-color="white"/>
<stop offset="1" stop-color="white" stop-opacity="0.7"/>
</linearGradient>
</defs>
</svg>
