<svg width="64" height="64" viewBox="0 0 64 64" fill="none" xmlns="http://www.w3.org/2000/svg">
<g clip-path="url(#clip0_33_36940)">
<mask id="mask0_33_36940" style="mask-type:luminance" maskUnits="userSpaceOnUse" x="0" y="0" width="64" height="64">
<path d="M64 0H0V64H64V0Z" fill="white"/>
</mask>
<g mask="url(#mask0_33_36940)">
<path d="M54.3275 9.4627C53.9542 9.0978 53.7451 8.6036 53.7472 8.08855V1.77238C53.7472 0.794402 52.9365 0.00201416 51.936 0.00201416H46.0459C45.0453 0.00201416 44.2347 0.794402 44.2347 1.77238V7.52762C44.2347 8.50559 45.0453 9.29795 46.0459 9.29795H52.5035C53.0304 9.29795 53.536 9.50229 53.9093 9.86517C54.2827 10.2301 54.4918 10.7243 54.4896 11.2393V47.6413C54.4896 48.6192 55.3003 49.4116 56.3008 49.4116H62.1888C63.1894 49.4116 64 48.6192 64 47.6413V11.8107C64 10.8327 63.1894 10.0403 62.1888 10.0403H55.7334C55.2043 10.0382 54.6987 9.8297 54.3275 9.4627Z" fill="#6C7171"/>
<path d="M10.0907 29.921C10.464 29.5582 10.9675 29.3539 11.4944 29.356H27.4752C28.4715 29.356 29.28 28.5657 29.28 27.5919V21.2632C29.28 20.7523 29.4891 20.2622 29.8581 19.9014C30.2315 19.5387 30.7349 19.3364 31.2619 19.3364H37.7301C38.7264 19.3364 39.5349 18.5461 39.5349 17.5723V11.7941C39.5349 10.8203 38.7264 10.03 37.7301 10.03H31.2747C30.1781 10.0279 29.2885 9.16041 29.2864 8.08654V1.76411C29.2864 0.790304 28.4779 0 27.4816 0H1.83467C0.821333 0 0 0.802815 0 1.7933V7.50684C0 8.49734 0.821333 9.30011 1.83467 9.30011H28.0427C29.1435 9.30011 30.0352 10.1718 30.0352 11.2477V18.1269C30.0352 18.6399 29.8261 19.1341 29.4549 19.497C29.0837 19.8597 28.5781 20.0621 28.0533 20.0621H12.0661C11.0699 20.0621 10.2613 20.8524 10.2613 21.8262V28.1549C10.2613 28.6678 10.0544 29.16 9.6832 29.5227C9.312 29.8856 8.80853 30.0879 8.28373 30.0879H1.8048C0.808533 30.0879 0 30.8782 0 31.852V37.6218C0 38.5957 0.808533 39.3859 1.8048 39.3859H8.28587C8.81067 39.3859 9.3141 39.5882 9.6853 39.951C10.0565 40.3139 10.2635 40.8059 10.2635 41.319V47.6517C10.2635 48.6256 11.072 49.4159 12.0683 49.4159H37.7152C38.7285 49.4159 39.5499 48.6131 39.5499 47.6226V41.9132C39.5499 40.9227 38.7285 40.12 37.7152 40.12H11.5008C10.9739 40.12 10.4704 39.9176 10.0971 39.5548C9.7259 39.1941 9.5189 38.7041 9.5189 38.1932V31.2994C9.5147 30.7802 9.7195 30.286 10.0907 29.921Z" fill="#6C7171"/>
<path d="M61.0027 16.98C60.96 17.0218 60.9024 17.0446 60.8405 17.0468H59.9403C59.8805 17.0446 59.8229 17.0218 59.7781 16.98C59.7355 16.9383 59.712 16.882 59.7099 16.8216V12.5177C59.7099 12.3884 59.6011 12.282 59.4688 12.282H58.7456C58.6133 12.282 58.5045 12.3884 58.5045 12.5177V16.8216C58.5024 16.88 58.4789 16.9362 58.4363 16.98C58.3936 17.0218 58.336 17.0446 58.2741 17.0468H57.3739C57.3141 17.0446 57.2565 17.0218 57.2117 16.98C57.1691 16.9362 57.1456 16.88 57.1435 16.8195V12.5177C57.1435 12.3884 57.0347 12.282 56.9024 12.282H56.1792C56.0469 12.282 55.9381 12.3884 55.9381 12.5177V16.7423C55.9381 16.8716 56.0469 16.978 56.1792 16.978H56.9536C57.0133 16.98 57.0709 17.003 57.1157 17.0446C57.1584 17.0884 57.1819 17.1448 57.184 17.2053V18.0039C57.184 18.1332 57.2928 18.2395 57.4251 18.2395H58.1483C58.2805 18.2395 58.3893 18.1332 58.3893 18.0039V17.1928C58.3893 17.1322 58.4149 17.076 58.4576 17.0322C58.5045 16.9821 58.5728 16.955 58.6432 16.9572H59.5435C59.6053 16.9572 59.6629 16.9821 59.7077 17.0238C59.7504 17.0655 59.7739 17.1218 59.776 17.1823V17.981C59.776 18.1102 59.8848 18.2166 60.0171 18.2166H60.7403C60.8725 18.2166 60.9813 18.1102 60.9813 17.981V17.1928C60.9813 17.1322 61.0069 17.076 61.0496 17.0322C61.0923 16.9904 61.1499 16.9676 61.2117 16.9655H62.0288C62.1611 16.9655 62.2699 16.8591 62.2699 16.7299V12.5177C62.2699 12.3884 62.1611 12.282 62.0288 12.282H61.3056C61.1733 12.282 61.0645 12.3884 61.0645 12.5177V16.8216C61.0645 16.88 61.0432 16.9362 61.0027 16.98Z" fill="white"/>
<path d="M59.6864 28.1193V27.3061C59.6864 27.1872 59.5883 27.0913 59.4667 27.0913H58.7115C58.5899 27.0913 58.4918 27.1872 58.4918 27.3061V28.1193C58.4918 28.1778 58.4683 28.232 58.4256 28.2716L58.4086 28.2883C58.368 28.33 58.3104 28.3529 58.2528 28.3529H57.4208C57.2992 28.3529 57.2011 28.4488 57.2011 28.5677V31.6329C57.2011 31.7518 57.2992 31.8478 57.4208 31.8478H58.2528C58.3126 31.8478 58.368 31.8706 58.4086 31.9124L58.4256 31.9291C58.4683 31.9687 58.4918 32.025 58.4918 32.0813V32.8946C58.4918 33.0134 58.5899 33.1093 58.7115 33.1093H59.4667C59.5883 33.1093 59.6864 33.0134 59.6864 32.8946V32.0813C59.6864 32.0229 59.7099 31.9687 59.7526 31.9291L59.7696 31.9124C59.8102 31.8706 59.8678 31.8478 59.9254 31.8478H60.7574C60.879 31.8478 60.9771 31.7518 60.9771 31.6329V28.5677C60.9771 28.4488 60.879 28.3529 60.7574 28.3529H59.9254C59.8656 28.3529 59.8102 28.33 59.7696 28.2883L59.7526 28.2716C59.7078 28.232 59.6843 28.1757 59.6864 28.1193ZM59.7142 31.8665L59.6971 31.8832C59.6566 31.9249 59.599 31.9478 59.5414 31.9478H58.6326C58.5728 31.9478 58.5174 31.9249 58.4768 31.8832L58.4598 31.8665C58.4171 31.8269 58.3936 31.7706 58.3936 31.7143V28.4926C58.3936 28.4342 58.4171 28.38 58.4598 28.3404L58.4768 28.3237C58.5174 28.282 58.575 28.259 58.6326 28.259H59.5414C59.6011 28.259 59.6566 28.282 59.6971 28.3237L59.7142 28.3404C59.7568 28.38 59.7803 28.4363 59.7803 28.4926V31.7143C59.7803 31.7706 59.7568 31.8269 59.7142 31.8665Z" fill="white"/>
<path d="M59.6714 21.9471L59.6501 21.968C59.6096 22.0076 59.5541 22.0284 59.4986 22.0284H58.6474C58.528 22.0284 58.432 21.9346 58.432 21.8178V19.8994C58.432 19.7826 58.336 19.6887 58.2165 19.6887H57.4464C57.3269 19.6887 57.2309 19.7826 57.2309 19.8994V25.4148C57.2309 25.5316 57.3269 25.6255 57.4464 25.6255H58.2165C58.336 25.6255 58.432 25.5316 58.432 25.4148V23.4047C58.432 23.2879 58.528 23.194 58.6474 23.194H59.4901C59.5477 23.194 59.601 23.217 59.6416 23.2546L59.6629 23.2754C59.7034 23.315 59.7248 23.3692 59.7248 23.4234V25.4148C59.7248 25.5316 59.8208 25.6255 59.9402 25.6255H60.7104C60.8298 25.6255 60.9258 25.5316 60.9258 25.4148V23.4964C60.9258 23.3796 60.8298 23.2858 60.7104 23.2858H59.8677C59.8101 23.2858 59.7568 23.2629 59.7162 23.2253L59.6949 23.2045C59.6544 23.1649 59.633 23.1106 59.633 23.0564V22.1639C59.633 22.1077 59.6565 22.0556 59.6949 22.0159L59.7162 21.995C59.7568 21.9554 59.8122 21.9346 59.8677 21.9346H60.7104C60.8298 21.9346 60.9258 21.8407 60.9258 21.7239V19.8973C60.9258 19.7805 60.8298 19.6866 60.7104 19.6866H59.9402C59.8208 19.6866 59.7248 19.7805 59.7248 19.8973V21.7969C59.7269 21.8532 59.7077 21.9053 59.6714 21.9471Z" fill="white"/>
<path d="M59.6863 35.6032V34.8087C59.6863 34.6795 59.5776 34.5731 59.4453 34.5731H58.7221C58.5898 34.5731 58.481 34.6795 58.481 34.8087V35.6032C58.481 35.6637 58.4554 35.72 58.4128 35.7638C58.368 35.8055 58.3104 35.8284 58.2485 35.8305H57.44C57.3077 35.8305 57.1989 35.9369 57.1989 36.0661V40.3763C57.1989 40.5056 57.3077 40.612 57.44 40.612H58.1632C58.2954 40.612 58.4042 40.5056 58.4042 40.3763V35.9869C58.4042 35.9264 58.4298 35.8701 58.4725 35.8263C58.5173 35.7846 58.5749 35.7617 58.6368 35.7596H59.5349C59.5968 35.7596 59.6543 35.7846 59.6991 35.8263C59.7418 35.8701 59.7653 35.9264 59.7674 35.9869V40.3784C59.7674 40.5077 59.8762 40.614 60.0085 40.614H60.7317C60.864 40.614 60.9728 40.5077 60.9728 40.3784V36.0683C60.9728 35.939 60.864 35.8326 60.7317 35.8326H59.9167C59.8549 35.8326 59.7973 35.8076 59.7525 35.7659C59.7077 35.7221 59.6842 35.6637 59.6863 35.6032Z" fill="white"/>
<path d="M59.7653 43.2645L59.7525 43.2519C59.7099 43.2102 59.6864 43.1539 59.6864 43.0956V42.2886C59.6864 42.1676 59.5861 42.0696 59.4624 42.0696H58.7179C58.5941 42.0696 58.4939 42.1676 58.4939 42.2886V43.0956C58.4939 43.1539 58.4704 43.2102 58.4277 43.2519L58.4149 43.2645C58.3723 43.3062 58.3147 43.3291 58.2549 43.3291H57.4272C57.3035 43.3291 57.2032 43.4271 57.2032 43.5481V47.8728C57.2032 47.9938 57.3035 48.0918 57.4272 48.0918H58.1611C58.2848 48.0918 58.3851 47.9938 58.3851 47.8728V45.6646V44.5385L58.4149 44.5677C58.4576 44.6095 58.4811 44.6657 58.4811 44.7241V45.5311C58.4811 45.652 58.5813 45.75 58.7051 45.75H59.4496C59.5733 45.75 59.6736 45.652 59.6736 45.5311V44.7262C59.6736 44.6678 59.6971 44.6115 59.7397 44.5698L59.7696 44.5406V47.8624C59.7696 47.9834 59.8698 48.0814 59.9936 48.0814H60.7381C60.8618 48.0814 60.9621 47.9834 60.9621 47.8624V43.5502C60.9621 43.4292 60.8618 43.3312 60.7381 43.3312H59.9232C59.8635 43.3312 59.8059 43.3062 59.7653 43.2645ZM59.7141 44.5135C59.6715 44.5552 59.6138 44.5782 59.5541 44.5782H58.6453C58.5856 44.5782 58.528 44.5552 58.4853 44.5135L58.4704 44.4989C58.4277 44.4572 58.4043 44.4009 58.4043 44.3425V43.4605C58.4043 43.4021 58.4277 43.3457 58.4704 43.304L58.4853 43.2895C58.528 43.2478 58.5856 43.2249 58.6453 43.2249H59.5498C59.6096 43.2249 59.6672 43.2478 59.7099 43.2895L59.7248 43.304C59.7674 43.3457 59.7909 43.4021 59.7909 43.4605V44.3467C59.7888 44.4113 59.7632 44.4718 59.7141 44.5135Z" fill="white"/>
<path d="M56.6571 57.3906L57.9691 56.4459H53.5765V62.122H57.9691V61.1774H54.8309V59.7239H57.5062V58.7794H54.8309V57.3906H56.6571Z" fill="#6C7171"/>
<path d="M50.2614 58.6584H48.736V57.3906H51.1702L52.4822 56.4459H47.4816V62.1241H50.0992C51.567 62.1241 52.4096 61.4735 52.4096 60.3411C52.4096 59.2548 51.648 58.6584 50.2614 58.6584ZM50.0438 61.1774H48.736V59.603H50.0438C50.8395 59.603 51.2107 59.8657 51.2107 60.3891C51.2107 60.925 50.8182 61.1774 50.0438 61.1774Z" fill="#6C7171"/>
<path d="M61.5254 56.4459H59.136V62.1241H60.3883V60.5163H61.5254C63.0507 60.5163 64 59.7323 64 58.479C64 57.2237 63.0528 56.4459 61.5254 56.4459ZM61.4998 59.5697H60.3883V57.3906H61.4998C62.3019 57.3906 62.7456 57.7784 62.7456 58.479C62.7456 59.1797 62.3019 59.5697 61.4998 59.5697Z" fill="#6C7171"/>
<path d="M45.3334 60.893C45.0112 61.0661 44.6379 61.1579 44.2518 61.1579C43.1211 61.1579 42.3019 60.3697 42.3019 59.2832C42.3019 58.1968 43.1211 57.4086 44.2518 57.4086C44.6784 57.4086 45.0624 57.5254 45.391 57.7568L46.2891 57.1083L46.2294 57.0583C45.7046 56.6078 45.0027 56.3701 44.2006 56.3701C43.3302 56.3701 42.5408 56.6558 41.9776 57.1772C41.4102 57.7005 41.0987 58.4366 41.0987 59.2519C41.0987 60.0693 41.4102 60.8179 41.9755 61.358C42.543 61.9002 43.3302 62.1984 44.1942 62.1984C45.0966 62.1984 45.8859 61.8898 46.4214 61.3309C46.0096 61.0327 45.6107 60.7471 45.6107 60.7471L45.3334 60.893Z" fill="#6C7171"/>
<path d="M38.1951 59.2832C38.1951 58.9955 38.1695 58.7119 38.1183 58.4387L37.0794 59.1873C37.0794 59.2186 37.0815 59.2519 37.0815 59.2832C37.0815 61.2829 35.4175 62.9116 33.3695 62.9116C31.3236 62.9116 29.6575 61.285 29.6575 59.2832C29.6575 57.2835 31.3215 55.6549 33.3695 55.6549C34.146 55.6549 34.865 55.8885 35.4623 56.2888L36.401 55.6132C35.5732 54.9585 34.5172 54.5664 33.3695 54.5664C30.705 54.5664 28.5439 56.6788 28.5439 59.2832C28.5439 61.8876 30.705 64 33.3695 64C36.0362 64 38.1951 61.8897 38.1951 59.2832Z" fill="#6C7171"/>
<path d="M37.1883 56.3992C37.4165 56.687 37.6107 57.0019 37.7664 57.3377L33.3696 60.5051L31.5328 59.3791V58.0236L33.3696 59.1497L37.1883 56.3992Z" fill="#6C7171"/>
</g>
</g>
<defs>
<clipPath id="clip0_33_36940">
<rect width="64" height="64" fill="white"/>
</clipPath>
</defs>
</svg>
