<svg width="64" height="64" viewBox="0 0 64 64" fill="none" xmlns="http://www.w3.org/2000/svg">
<path d="M32 31.1072L19.8192 23.4688V32.651L32 40.2894L61.1581 18.8057C60.1314 16.546 58.8443 14.4139 57.323 12.4528L32 31.1072Z" fill="#6C7171"/>
<path d="M64 32.0158C64.0008 30.0935 63.8293 28.175 63.4875 26.2833L56.5988 31.3657C56.5988 31.5774 56.6093 31.804 56.6093 32.0221C56.6094 37.5242 54.7673 42.8678 51.3767 47.2009C47.9861 51.534 43.2423 54.6072 37.9017 55.9302C32.5611 57.2533 26.9313 56.7501 21.91 54.5009C16.8887 52.2517 12.7651 48.386 10.1967 43.5203C7.62826 38.6545 6.76297 33.0689 7.73878 27.6541C8.71459 22.2393 11.4753 17.3071 15.5807 13.6441C19.6861 9.98103 24.8998 7.79803 30.3903 7.44319C35.8809 7.08834 41.3322 8.58209 45.8749 11.6862L52.0987 7.09937C46.4519 2.54151 39.4236 0.0382946 32.167 0.000435813C24.9103 -0.037423 17.8563 2.39232 12.1622 6.89102C6.46814 11.3897 2.47224 17.6902 0.830109 24.7587C-0.812022 31.8272 -0.00285424 39.244 3.12485 45.7921C6.25255 52.3403 11.513 57.6309 18.0432 60.7959C24.5734 63.961 31.9854 64.8125 39.0632 63.2107C46.1409 61.609 52.4641 57.6491 56.9953 51.9809C61.5264 46.3126 63.9964 39.2725 64 32.0158Z" fill="#6C7171"/>
</svg>
