<svg width="41" height="40" viewBox="0 0 41 40" fill="none" xmlns="http://www.w3.org/2000/svg">
<g clip-path="url(#clip0_115_60986)">
<g filter="url(#filter0_di_115_60986)">
<path d="M30.5 40H10.5C7.18629 40 4.5 37.3137 4.5 34V6C4.5 2.68629 7.18629 0 10.5 0H21.0147C22.606 0 24.1321 0.632142 25.2574 1.75736L34.7426 11.2426C35.8679 12.3679 36.5 13.894 36.5 15.4853V34C36.5 37.3137 33.8137 40 30.5 40Z" fill="white"/>
<path d="M30.5 39.25H10.5C7.60051 39.25 5.25 36.8995 5.25 34V6C5.25 3.10051 7.60051 0.75 10.5 0.75H21.0147C22.4071 0.75 23.7425 1.30312 24.727 2.28769L34.2123 11.773C35.1969 12.7575 35.75 14.0929 35.75 15.4853V34C35.75 36.8995 33.3995 39.25 30.5 39.25Z" stroke="#CECDD4" stroke-width="1.5"/>
</g>
<path d="M23.5 1V9C23.5 11.2091 25.2909 13 27.5 13H35.5" stroke="#CECDD4" stroke-width="1.5"/>
<g filter="url(#filter1_i_115_60986)">
<mask id="path-4-inside-1_115_60986" fill="white">
<path d="M0.5 22C0.5 19.7909 2.29086 18 4.5 18H24.5C26.7091 18 28.5 19.7909 28.5 22V30C28.5 32.2091 26.7091 34 24.5 34H4.5C2.29086 34 0.5 32.2091 0.5 30V22Z"/>
</mask>
<path d="M0.5 22C0.5 19.7909 2.29086 18 4.5 18H24.5C26.7091 18 28.5 19.7909 28.5 22V30C28.5 32.2091 26.7091 34 24.5 34H4.5C2.29086 34 0.5 32.2091 0.5 30V22Z" fill="#38C793"/>
<path d="M-0.5 22C-0.5 19.2386 1.73858 17 4.5 17H24.5C27.2614 17 29.5 19.2386 29.5 22H27.5C27.5 20.3431 26.1569 19 24.5 19H4.5C2.84315 19 1.5 20.3431 1.5 22H-0.5ZM28.5 34H0.5H28.5ZM4.5 34C1.73858 34 -0.5 31.7614 -0.5 29V22C-0.5 19.2386 1.73858 17 4.5 17V19C2.84315 19 1.5 20.3431 1.5 22V30C1.5 32.2091 2.84315 34 4.5 34ZM24.5 17C27.2614 17 29.5 19.2386 29.5 22V29C29.5 31.7614 27.2614 34 24.5 34C26.1569 34 27.5 32.2091 27.5 30V22C27.5 20.3431 26.1569 19 24.5 19V17Z" fill="black" fill-opacity="0.08" mask="url(#path-4-inside-1_115_60986)"/>
<path d="M5.5 22L7.26172 24.9297H7.32422L9.09375 22H10.7461L8.28125 26L10.7852 30H9.10547L7.32422 27.0898H7.26172L5.48047 30H3.80859L6.33594 26L3.83984 22H5.5ZM12.1038 30V22H13.553V28.7852H17.0764V30H12.1038ZM22.9019 24.1992C22.8655 23.8581 22.7118 23.5924 22.441 23.4023C22.1727 23.2122 21.8238 23.1172 21.3941 23.1172C21.092 23.1172 20.8329 23.1628 20.6168 23.2539C20.4006 23.3451 20.2352 23.4687 20.1207 23.625C20.0061 23.7812 19.9475 23.9596 19.9449 24.1602C19.9449 24.3268 19.9826 24.4714 20.0582 24.5937C20.1363 24.7161 20.2418 24.8203 20.3746 24.9062C20.5074 24.9896 20.6545 25.0599 20.816 25.1172C20.9774 25.1745 21.1402 25.2227 21.3043 25.2617L22.0543 25.4492C22.3563 25.5195 22.6467 25.6146 22.9254 25.7344C23.2066 25.8542 23.4579 26.0052 23.6793 26.1875C23.9032 26.3698 24.0803 26.5898 24.2105 26.8477C24.3407 27.1055 24.4058 27.4076 24.4058 27.7539C24.4058 28.2227 24.286 28.6354 24.0464 28.9922C23.8069 29.3464 23.4605 29.6237 23.0074 29.8242C22.5569 30.0221 22.0113 30.1211 21.3707 30.1211C20.7483 30.1211 20.2079 30.0247 19.7496 29.832C19.2938 29.6393 18.9371 29.3581 18.6793 28.9883C18.424 28.6185 18.286 28.168 18.2652 27.6367H19.691C19.7118 27.9154 19.7977 28.1471 19.9488 28.332C20.0998 28.5169 20.2964 28.6549 20.5386 28.7461C20.7834 28.8372 21.0569 28.8828 21.3589 28.8828C21.674 28.8828 21.9501 28.8359 22.1871 28.7422C22.4267 28.6458 22.6142 28.513 22.7496 28.3437C22.885 28.1719 22.954 27.9714 22.9566 27.7422C22.954 27.5339 22.8928 27.362 22.773 27.2266C22.6532 27.0885 22.4852 26.974 22.2691 26.8828C22.0556 26.7891 21.8056 26.7057 21.5191 26.6328L20.6089 26.3984C19.9501 26.2292 19.4293 25.9727 19.0464 25.6289C18.6662 25.2826 18.4761 24.8229 18.4761 24.25C18.4761 23.7786 18.6037 23.3659 18.8589 23.0117C19.1168 22.6576 19.467 22.3828 19.9097 22.1875C20.3524 21.9896 20.8537 21.8906 21.4136 21.8906C21.9813 21.8906 22.4787 21.9896 22.9058 22.1875C23.3355 22.3828 23.6727 22.6549 23.9175 23.0039C24.1623 23.3503 24.2886 23.7487 24.2964 24.1992H22.9019Z" fill="white"/>
</g>
</g>
<defs>
<filter id="filter0_di_115_60986" x="2.5" y="-4" width="36" height="47" filterUnits="userSpaceOnUse" color-interpolation-filters="sRGB">
<feFlood flood-opacity="0" result="BackgroundImageFix"/>
<feColorMatrix in="SourceAlpha" type="matrix" values="0 0 0 0 0 0 0 0 0 0 0 0 0 0 0 0 0 0 127 0" result="hardAlpha"/>
<feOffset dy="1"/>
<feGaussianBlur stdDeviation="1"/>
<feComposite in2="hardAlpha" operator="out"/>
<feColorMatrix type="matrix" values="0 0 0 0 0.894118 0 0 0 0 0.898039 0 0 0 0 0.905882 0 0 0 0.24 0"/>
<feBlend mode="normal" in2="BackgroundImageFix" result="effect1_dropShadow_115_60986"/>
<feBlend mode="normal" in="SourceGraphic" in2="effect1_dropShadow_115_60986" result="shape"/>
<feColorMatrix in="SourceAlpha" type="matrix" values="0 0 0 0 0 0 0 0 0 0 0 0 0 0 0 0 0 0 127 0" result="hardAlpha"/>
<feOffset dy="-4"/>
<feGaussianBlur stdDeviation="2"/>
<feComposite in2="hardAlpha" operator="arithmetic" k2="-1" k3="1"/>
<feColorMatrix type="matrix" values="0 0 0 0 0.813571 0 0 0 0 0.82 0 0 0 0 0.826429 0 0 0 0.32 0"/>
<feBlend mode="normal" in2="shape" result="effect2_innerShadow_115_60986"/>
</filter>
<filter id="filter1_i_115_60986" x="0.5" y="18" width="28" height="20" filterUnits="userSpaceOnUse" color-interpolation-filters="sRGB">
<feFlood flood-opacity="0" result="BackgroundImageFix"/>
<feBlend mode="normal" in="SourceGraphic" in2="BackgroundImageFix" result="shape"/>
<feColorMatrix in="SourceAlpha" type="matrix" values="0 0 0 0 0 0 0 0 0 0 0 0 0 0 0 0 0 0 127 0" result="hardAlpha"/>
<feOffset dy="4"/>
<feGaussianBlur stdDeviation="2"/>
<feComposite in2="hardAlpha" operator="arithmetic" k2="-1" k3="1"/>
<feColorMatrix type="matrix" values="0 0 0 0 1 0 0 0 0 1 0 0 0 0 1 0 0 0 0.08 0"/>
<feBlend mode="normal" in2="shape" result="effect1_innerShadow_115_60986"/>
</filter>
<clipPath id="clip0_115_60986">
<rect width="40" height="40" fill="white" transform="translate(0.5)"/>
</clipPath>
</defs>
</svg>
